<svg width="139" height="138" viewBox="0 0 139 138" fill="none" xmlns="http://www.w3.org/2000/svg">
<g filter="url(#filter0_d)">
<rect x="3" y="3" width="131" height="129.253" rx="4" fill="#666666"/>
<path d="M12.0132 118.28V108.346H14.8174C15.6816 108.346 16.4458 108.537 17.1099 108.919C17.774 109.301 18.2857 109.845 18.6451 110.55C19.0089 111.255 19.1932 112.064 19.1977 112.979V113.613C19.1977 114.55 19.0158 115.371 18.6519 116.076C18.2925 116.781 17.7763 117.323 17.1031 117.7C16.4344 118.078 15.6543 118.271 14.7628 118.28H12.0132ZM13.3232 109.424V117.209H14.7014C15.7112 117.209 16.4958 116.895 17.0553 116.267C17.6193 115.64 17.9014 114.746 17.9014 113.586V113.006C17.9014 111.878 17.6353 111.002 17.1031 110.379C16.5754 109.751 15.8249 109.433 14.8515 109.424H13.3232Z" fill="white"/>
<path d="M28.8249 113.634C28.8249 114.607 28.6611 115.458 28.3336 116.185C28.0061 116.909 27.5421 117.461 26.9417 117.843C26.3413 118.226 25.6408 118.417 24.8403 118.417C24.0579 118.417 23.3642 118.226 22.7593 117.843C22.1543 117.457 21.6835 116.909 21.3469 116.199C21.0149 115.485 20.8443 114.659 20.8352 113.722V113.006C20.8352 112.051 21.0012 111.207 21.3333 110.475C21.6653 109.742 22.1338 109.183 22.7388 108.796C23.3483 108.405 24.0443 108.209 24.8266 108.209C25.6226 108.209 26.3231 108.403 26.9281 108.789C27.5376 109.172 28.0061 109.729 28.3336 110.461C28.6611 111.189 28.8249 112.037 28.8249 113.006V113.634ZM27.5217 112.992C27.5217 111.814 27.2851 110.911 26.8121 110.284C26.339 109.651 25.6772 109.335 24.8266 109.335C23.9988 109.335 23.346 109.651 22.8684 110.284C22.3954 110.911 22.152 111.785 22.1384 112.904V113.634C22.1384 114.775 22.3772 115.674 22.8548 116.329C23.337 116.979 23.9988 117.304 24.8403 117.304C25.6863 117.304 26.3413 116.997 26.8053 116.383C27.2692 115.765 27.508 114.88 27.5217 113.729V112.992Z" fill="white"/>
<path d="M32.9322 115.148L33.1233 116.458L33.403 115.278L35.368 108.346H36.4733L38.3906 115.278L38.6635 116.479L38.875 115.142L40.417 108.346H41.7338L39.3253 118.28H38.1313L36.0844 111.041L35.9275 110.284L35.7706 111.041L33.6487 118.28H32.4546L30.053 108.346H31.363L32.9322 115.148Z" fill="white"/>
<path d="M50.8288 118.28H49.5119L44.5107 110.625V118.28H43.1939V108.346H44.5107L49.5256 116.035V108.346H50.8288V118.28Z" fill="white"/>
<path d="M56.6214 118.28V108.346H59.4256C60.2899 108.346 61.054 108.537 61.7181 108.919C62.3822 109.301 62.894 109.845 63.2533 110.55C63.6172 111.255 63.8014 112.064 63.8059 112.979V113.613C63.8059 114.55 63.624 115.371 63.2601 116.076C62.9008 116.781 62.3845 117.323 61.7113 117.7C61.0427 118.078 60.2626 118.271 59.3711 118.28H56.6214ZM57.9314 109.424V117.209H59.3096C60.3194 117.209 61.1041 116.895 61.6636 116.267C62.2276 115.64 62.5096 114.746 62.5096 113.586V113.006C62.5096 111.878 62.2435 111.002 61.7113 110.379C61.1837 109.751 60.4332 109.433 59.4598 109.424H57.9314Z" fill="white"/>
<path d="M67.1969 118.28H65.8869V108.346H67.1969V118.28Z" fill="white"/>
<path d="M73.242 114.261H70.9086V118.28H69.5918V108.346H72.8804C73.9994 108.346 74.8591 108.601 75.4595 109.11C76.0645 109.62 76.3669 110.361 76.3669 111.334C76.3669 111.953 76.1986 112.492 75.862 112.951C75.53 113.411 75.066 113.754 74.4702 113.982L76.8036 118.198V118.28H75.3981L73.242 114.261ZM70.9086 113.19H72.9214C73.5718 113.19 74.0881 113.022 74.4702 112.685C74.8568 112.349 75.0501 111.898 75.0501 111.334C75.0501 110.72 74.8659 110.25 74.4975 109.922C74.1336 109.595 73.6059 109.428 72.9145 109.424H70.9086V113.19Z" fill="white"/>
<path d="M83.8244 113.688H79.5191V117.209H84.5203V118.28H78.2091V108.346H84.4521V109.424H79.5191V112.617H83.8244V113.688Z" fill="white"/>
<path d="M93.4583 115.128C93.3355 116.179 92.9466 116.991 92.2916 117.564C91.6412 118.132 90.7747 118.417 89.6921 118.417C88.5186 118.417 87.577 117.996 86.8674 117.154C86.1624 116.313 85.8099 115.187 85.8099 113.777V112.822C85.8099 111.898 85.9736 111.086 86.3011 110.386C86.6332 109.685 87.1017 109.149 87.7066 108.776C88.3116 108.398 89.0121 108.209 89.8081 108.209C90.8634 108.209 91.7094 108.505 92.3462 109.096C92.983 109.683 93.3537 110.497 93.4583 111.539H92.1415C92.0278 110.748 91.7799 110.174 91.3978 109.82C91.0203 109.465 90.4904 109.287 89.8081 109.287C88.9711 109.287 88.3139 109.597 87.8363 110.215C87.3632 110.834 87.1267 111.714 87.1267 112.856V113.818C87.1267 114.896 87.3518 115.753 87.8021 116.39C88.2525 117.027 88.8824 117.345 89.6921 117.345C90.4199 117.345 90.9771 117.182 91.3637 116.854C91.7549 116.522 92.0142 115.947 92.1415 115.128H93.4583Z" fill="white"/>
<path d="M101.912 109.424H98.7188V118.28H97.4156V109.424H94.2293V108.346H101.912V109.424Z" fill="white"/>
<path d="M104.791 118.28H103.481V108.346H104.791V118.28Z" fill="white"/>
<path d="M114.835 113.634C114.835 114.607 114.671 115.458 114.343 116.185C114.016 116.909 113.552 117.461 112.951 117.843C112.351 118.226 111.651 118.417 110.85 118.417C110.068 118.417 109.374 118.226 108.769 117.843C108.164 117.457 107.693 116.909 107.357 116.199C107.025 115.485 106.854 114.659 106.845 113.722V113.006C106.845 112.051 107.011 111.207 107.343 110.475C107.675 109.742 108.144 109.183 108.749 108.796C109.358 108.405 110.054 108.209 110.836 108.209C111.632 108.209 112.333 108.403 112.938 108.789C113.547 109.172 114.016 109.729 114.343 110.461C114.671 111.189 114.835 112.037 114.835 113.006V113.634ZM113.531 112.992C113.531 111.814 113.295 110.911 112.822 110.284C112.349 109.651 111.687 109.335 110.836 109.335C110.008 109.335 109.356 109.651 108.878 110.284C108.405 110.911 108.162 111.785 108.148 112.904V113.634C108.148 114.775 108.387 115.674 108.864 116.329C109.347 116.979 110.008 117.304 110.85 117.304C111.696 117.304 112.351 116.997 112.815 116.383C113.279 115.765 113.518 114.88 113.531 113.729V112.992Z" fill="white"/>
<path d="M124.434 118.28H123.118L118.116 110.625V118.28H116.8V108.346H118.116L123.131 116.035V108.346H124.434V118.28Z" fill="white"/>
<path d="M69.8377 89.6605L93.374 61.9614C93.6103 61.6792 93.7615 61.3354 93.8098 60.9702C93.8582 60.6049 93.8018 60.2334 93.6471 59.8992C93.4925 59.565 93.246 59.2818 92.9366 59.0829C92.6272 58.884 92.2676 58.7776 91.9001 58.7761L82.0204 58.776L82.0204 24.1522C82.0144 23.6398 81.8087 23.1501 81.4472 22.7878C81.0857 22.4254 80.5971 22.2192 80.0859 22.2132L56.5957 22.2132C56.0866 22.2193 55.6005 22.4263 55.2427 22.7892C54.8849 23.1522 54.6842 23.6419 54.6843 24.1522L54.6842 58.2913L45.1039 58.2913C44.7385 58.292 44.3808 58.3965 44.0722 58.5925C43.7636 58.7886 43.5167 59.0682 43.3601 59.3991C43.2034 59.73 43.1435 60.0986 43.1872 60.4621C43.2309 60.8257 43.3765 61.1695 43.607 61.4536L66.8669 89.6375C67.049 89.8535 67.2755 90.0275 67.531 90.1476C67.7865 90.2677 68.0649 90.331 68.347 90.3332C68.6292 90.3354 68.9085 90.2764 69.1658 90.1603C69.4231 90.0442 69.6523 89.8737 69.8377 89.6605Z" fill="#C4C4C4" stroke="white" stroke-width="2" stroke-miterlimit="10"/>
<path d="M70.5 61.5C71.6 61.5 72.5 60.6 72.5 59.5C72.5 58.4 71.6 57.5 70.5 57.5C69.4 57.5 68.5 58.4 68.5 59.5C68.5 60.6 69.4 61.5 70.5 61.5ZM66.8 64.9L64 79H66.1L67.9 71L70 73L70 79H72L72 71.5L69.9 69.5L70.5 66.5C71.8 68 73.8 69 76 69L76 67C74.1 67 72.5 66 71.7 64.6L70.7 63C70.3 62.4 69.7 62 69 62C68.7 62 68.5 62.1 68.2 62.1L63 64.3L63 69H65L65 65.6L66.8 64.9Z" fill="#666666"/>
</g>
<defs>
<filter id="filter0_d" x="0" y="0" width="139" height="137.253" filterUnits="userSpaceOnUse" color-interpolation-filters="sRGB">
<feFlood flood-opacity="0" result="BackgroundImageFix"/>
<feColorMatrix in="SourceAlpha" type="matrix" values="0 0 0 0 0 0 0 0 0 0 0 0 0 0 0 0 0 0 127 0"/>
<feOffset dx="1" dy="1"/>
<feGaussianBlur stdDeviation="2"/>
<feColorMatrix type="matrix" values="0 0 0 0 0 0 0 0 0 0 0 0 0 0 0 0 0 0 0.25 0"/>
<feBlend mode="normal" in2="BackgroundImageFix" result="effect1_dropShadow"/>
<feBlend mode="normal" in="SourceGraphic" in2="effect1_dropShadow" result="shape"/>
</filter>
</defs>
</svg>
