<svg width="138" height="137" viewBox="0 0 138 137" fill="none" xmlns="http://www.w3.org/2000/svg">
<g filter="url(#filter0_d)">
<rect x="3" y="3" width="130" height="128.251" rx="4" fill="#666666"/>
<path d="M11.9443 117.386V107.529H14.7271C15.5848 107.529 16.3431 107.719 17.0021 108.098C17.6612 108.477 18.169 109.016 18.5256 109.716C18.8867 110.415 19.0695 111.219 19.074 112.126V112.756C19.074 113.685 18.8935 114.5 18.5324 115.2C18.1758 115.899 17.6634 116.436 16.9954 116.811C16.3318 117.186 15.5577 117.377 14.673 117.386H11.9443ZM13.2443 108.599V116.323H14.612C15.6141 116.323 16.3928 116.012 16.948 115.389C17.5077 114.766 17.7876 113.879 17.7876 112.729V112.153C17.7876 111.034 17.5235 110.165 16.9954 109.547C16.4718 108.924 15.727 108.608 14.761 108.599H13.2443Z" fill="white"/>
<path d="M28.6277 112.776C28.6277 113.742 28.4652 114.586 28.1402 115.308C27.8152 116.026 27.3548 116.574 26.7589 116.953C26.1631 117.332 25.4679 117.522 24.6735 117.522C23.8971 117.522 23.2087 117.332 22.6084 116.953C22.0081 116.569 21.5409 116.026 21.2068 115.321C20.8773 114.613 20.7081 113.794 20.699 112.864V112.153C20.699 111.205 20.8638 110.368 21.1933 109.641C21.5228 108.915 21.9877 108.36 22.5881 107.976C23.1929 107.588 23.8836 107.394 24.66 107.394C25.4499 107.394 26.145 107.586 26.7454 107.969C27.3502 108.348 27.8152 108.901 28.1402 109.628C28.4652 110.35 28.6277 111.192 28.6277 112.153V112.776ZM27.3344 112.14C27.3344 110.971 27.0997 110.075 26.6303 109.452C26.1608 108.825 25.5041 108.511 24.66 108.511C23.8384 108.511 23.1907 108.825 22.7167 109.452C22.2473 110.075 22.0058 110.941 21.9923 112.052V112.776C21.9923 113.909 22.2292 114.8 22.7032 115.45C23.1817 116.096 23.8384 116.418 24.6735 116.418C25.5131 116.418 26.1631 116.114 26.6235 115.504C27.0839 114.89 27.3209 114.013 27.3344 112.871V112.14Z" fill="white"/>
<path d="M32.7037 114.279L32.8933 115.579L33.1709 114.408L35.1209 107.529H36.2178L38.1204 114.408L38.3912 115.599L38.6011 114.272L40.1313 107.529H41.4381L39.048 117.386H37.8631L35.8318 110.203L35.6761 109.452L35.5204 110.203L33.4146 117.386H32.2298L29.8464 107.529H31.1464L32.7037 114.279Z" fill="white"/>
<path d="M50.4636 117.386H49.1568L44.1938 109.79V117.386H42.887V107.529H44.1938L49.1704 115.159V107.529H50.4636V117.386Z" fill="white"/>
<path d="M56.212 117.386V107.529H58.9949C59.8525 107.529 60.6108 107.719 61.2699 108.098C61.9289 108.477 62.4367 109.016 62.7933 109.716C63.1544 110.415 63.3372 111.219 63.3417 112.126V112.756C63.3417 113.685 63.1612 114.5 62.8001 115.2C62.4435 115.899 61.9311 116.436 61.2631 116.811C60.5995 117.186 59.8254 117.377 58.9407 117.386H56.212ZM57.512 108.599V116.323H58.8798C59.8818 116.323 60.6605 116.012 61.2157 115.389C61.7754 114.766 62.0553 113.879 62.0553 112.729V112.153C62.0553 111.034 61.7912 110.165 61.2631 109.547C60.7395 108.924 59.9947 108.608 59.0287 108.599H57.512Z" fill="white"/>
<path d="M66.7068 117.386H65.4068V107.529H66.7068V117.386Z" fill="white"/>
<path d="M72.7058 113.399H70.3902V117.386H69.0834V107.529H72.3469C73.4574 107.529 74.3105 107.782 74.9063 108.287C75.5067 108.793 75.8068 109.529 75.8068 110.494C75.8068 111.108 75.6398 111.643 75.3058 112.099C74.9763 112.555 74.5159 112.896 73.9245 113.121L76.2402 117.305V117.386H74.8454L72.7058 113.399ZM70.3902 112.336H72.3876C73.0331 112.336 73.5454 112.169 73.9245 111.835C74.3082 111.501 74.5001 111.054 74.5001 110.494C74.5001 109.885 74.3173 109.418 73.9516 109.093C73.5905 108.768 73.0669 108.603 72.3808 108.599H70.3902V112.336Z" fill="white"/>
<path d="M83.2074 112.83H78.935V116.323H83.898V117.386H77.635V107.529H83.8303V108.599H78.935V111.767H83.2074V112.83Z" fill="white"/>
<path d="M92.7678 114.259C92.6459 115.301 92.26 116.107 91.61 116.675C90.9645 117.24 90.1046 117.522 89.0303 117.522C87.8657 117.522 86.9313 117.104 86.2272 116.269C85.5275 115.434 85.1777 114.317 85.1777 112.918V111.97C85.1777 111.054 85.3402 110.248 85.6652 109.553C85.9947 108.858 86.4596 108.326 87.06 107.956C87.6603 107.581 88.3555 107.394 89.1454 107.394C90.1926 107.394 91.0322 107.687 91.6641 108.274C92.2961 108.856 92.664 109.664 92.7678 110.698H91.461C91.3482 109.912 91.1022 109.344 90.723 108.992C90.3483 108.639 89.8225 108.463 89.1454 108.463C88.3148 108.463 87.6626 108.77 87.1886 109.384C86.7192 109.998 86.4844 110.871 86.4844 112.004V112.959C86.4844 114.028 86.7079 114.879 87.1548 115.511C87.6016 116.143 88.2268 116.459 89.0303 116.459C89.7525 116.459 90.3055 116.296 90.6891 115.971C91.0773 115.642 91.3346 115.071 91.461 114.259H92.7678Z" fill="white"/>
<path d="M101.157 108.599H97.9881V117.386H96.6949V108.599H93.5329V107.529H101.157V108.599Z" fill="white"/>
<path d="M104.014 117.386H102.714V107.529H104.014V117.386Z" fill="white"/>
<path d="M113.981 112.776C113.981 113.742 113.818 114.586 113.493 115.308C113.168 116.026 112.708 116.574 112.112 116.953C111.516 117.332 110.821 117.522 110.027 117.522C109.25 117.522 108.562 117.332 107.962 116.953C107.361 116.569 106.894 116.026 106.56 115.321C106.23 114.613 106.061 113.794 106.052 112.864V112.153C106.052 111.205 106.217 110.368 106.546 109.641C106.876 108.915 107.341 108.36 107.941 107.976C108.546 107.588 109.237 107.394 110.013 107.394C110.803 107.394 111.498 107.586 112.099 107.969C112.703 108.348 113.168 108.901 113.493 109.628C113.818 110.35 113.981 111.192 113.981 112.153V112.776ZM112.688 112.14C112.688 110.971 112.453 110.075 111.983 109.452C111.514 108.825 110.857 108.511 110.013 108.511C109.192 108.511 108.544 108.825 108.07 109.452C107.6 110.075 107.359 110.941 107.345 112.052V112.776C107.345 113.909 107.582 114.8 108.056 115.45C108.535 116.096 109.192 116.418 110.027 116.418C110.866 116.418 111.516 116.114 111.977 115.504C112.437 114.89 112.674 114.013 112.688 112.871V112.14Z" fill="white"/>
<path d="M123.507 117.386H122.201L117.238 109.79V117.386H115.931V107.529H117.238L122.214 115.159V107.529H123.507V117.386Z" fill="white"/>
<path d="M69.3275 88.9887L92.684 61.5044C92.9186 61.2244 93.0686 60.8832 93.1166 60.5208C93.1646 60.1584 93.1086 59.7898 92.9551 59.4581C92.8017 59.1265 92.5571 58.8455 92.25 58.6482C91.943 58.4508 91.5862 58.3452 91.2214 58.3437L81.4171 58.3437L81.4171 23.9882C81.4112 23.4798 81.207 22.9939 80.8483 22.6344C80.4896 22.2749 80.0047 22.0703 79.4974 22.0643L56.1865 22.0643C55.6814 22.0703 55.199 22.2757 54.8439 22.6358C54.4888 22.996 54.2897 23.4819 54.2897 23.9882L54.2897 57.8627L44.7825 57.8627C44.4199 57.8634 44.0649 57.9671 43.7587 58.1616C43.4524 58.3561 43.2074 58.6336 43.052 58.9619C42.8965 59.2902 42.8371 59.6559 42.8804 60.0167C42.9238 60.3775 43.0682 60.7186 43.297 61.0005L66.3793 88.9658C66.5601 89.1802 66.7849 89.3529 67.0384 89.472C67.2919 89.5912 67.5682 89.654 67.8482 89.6562C68.1282 89.6584 68.4053 89.5998 68.6607 89.4846C68.916 89.3694 69.1435 89.2003 69.3275 88.9887Z" fill="#C4C4C4" stroke="white" stroke-width="2" stroke-miterlimit="10"/>
<path d="M70.9167 60.3333C71.2463 60.3333 71.5685 60.2356 71.8426 60.0525C72.1167 59.8693 72.3303 59.609 72.4565 59.3045C72.5826 58.9999 72.6156 58.6648 72.5513 58.3415C72.487 58.0182 72.3283 57.7212 72.0952 57.4882C71.8621 57.2551 71.5651 57.0963 71.2418 57.032C70.9185 56.9677 70.5834 57.0007 70.2789 57.1269C69.9743 57.253 69.714 57.4666 69.5309 57.7407C69.3477 58.0148 69.25 58.337 69.25 58.6667C69.25 59.1087 69.4256 59.5326 69.7382 59.8452C70.0507 60.1577 70.4746 60.3333 70.9167 60.3333ZM62.1667 65.75C61.0616 65.75 60.0018 66.189 59.2204 66.9704C58.439 67.7518 58 68.8116 58 69.9167C58 71.0217 58.439 72.0815 59.2204 72.8629C60.0018 73.6443 61.0616 74.0833 62.1667 74.0833C63.2717 74.0833 64.3315 73.6443 65.1129 72.8629C65.8943 72.0815 66.3333 71.0217 66.3333 69.9167C66.3333 68.8116 65.8943 67.7518 65.1129 66.9704C64.3315 66.189 63.2717 65.75 62.1667 65.75ZM62.1667 72.8333C61.3931 72.8333 60.6513 72.526 60.1043 71.9791C59.5573 71.4321 59.25 70.6902 59.25 69.9167C59.25 69.1431 59.5573 68.4013 60.1043 67.8543C60.6513 67.3073 61.3931 67 62.1667 67C62.9402 67 63.6821 67.3073 64.2291 67.8543C64.776 68.4013 65.0833 69.1431 65.0833 69.9167C65.0833 70.6902 64.776 71.4321 64.2291 71.9791C63.6821 72.526 62.9402 72.8333 62.1667 72.8333ZM67 64.5L69 62.5L69.6667 63.1667C70.2196 63.731 70.8815 64.1771 71.612 64.4779C72.3426 64.7787 73.1267 64.928 73.9167 64.9167V63.25C73.3584 63.2533 72.8051 63.1443 72.2898 62.9296C71.7744 62.7148 71.3075 62.3987 70.9167 62L69.3333 60.4167C68.9633 60.0954 68.49 59.9179 68 59.9167C67.7799 59.9022 67.5595 59.94 67.3567 60.0269C67.154 60.1137 66.9747 60.2473 66.8333 60.4167L64.5 62.75C64.186 63.0577 64.0063 63.4771 64 63.9167C63.9855 64.1368 64.0233 64.3572 64.1102 64.5599C64.1971 64.7627 64.3306 64.942 64.5 65.0833L67.1667 67.4167V71.5833H68.8333V66.4167L67 64.5ZM73.8333 65.75C73.0092 65.75 72.2037 65.9944 71.5185 66.4522C70.8333 66.9101 70.2992 67.5608 69.9838 68.3222C69.6685 69.0835 69.586 69.9213 69.7467 70.7295C69.9075 71.5378 70.3043 72.2802 70.8871 72.8629C71.4698 73.4457 72.2122 73.8425 73.0205 74.0033C73.8287 74.164 74.6665 74.0815 75.4278 73.7662C76.1892 73.4508 76.84 72.9167 77.2978 72.2315C77.7556 71.5463 78 70.7408 78 69.9167C78 69.3695 77.8922 68.8277 77.6828 68.3222C77.4734 67.8166 77.1665 67.3573 76.7796 66.9704C76.3927 66.5835 75.9334 66.2766 75.4278 66.0672C74.9223 65.8578 74.3805 65.75 73.8333 65.75ZM73.8333 72.8333C73.2565 72.8333 72.6926 72.6623 72.2129 72.3418C71.7333 72.0213 71.3594 71.5658 71.1387 71.0328C70.9179 70.4999 70.8602 69.9134 70.9727 69.3477C71.0852 68.7819 71.363 68.2622 71.7709 67.8543C72.1788 67.4464 72.6985 67.1686 73.2643 67.056C73.8301 66.9435 74.4165 67.0013 74.9495 67.222C75.4824 67.4428 75.938 67.8166 76.2585 68.2963C76.5789 68.7759 76.75 69.3398 76.75 69.9167C76.7413 70.6875 76.4313 71.4244 75.8862 71.9695C75.341 72.5146 74.6042 72.8247 73.8333 72.8333Z" fill="#666666"/>
<path d="M67.1666 74.4999H63.8333L68.8333 76.9999V75.3333H72.1666L67.1666 72.8333V74.4999Z" fill="#666666"/>
</g>
<defs>
<filter id="filter0_d" x="0" y="0" width="138" height="136.251" filterUnits="userSpaceOnUse" color-interpolation-filters="sRGB">
<feFlood flood-opacity="0" result="BackgroundImageFix"/>
<feColorMatrix in="SourceAlpha" type="matrix" values="0 0 0 0 0 0 0 0 0 0 0 0 0 0 0 0 0 0 127 0"/>
<feOffset dx="1" dy="1"/>
<feGaussianBlur stdDeviation="2"/>
<feColorMatrix type="matrix" values="0 0 0 0 0 0 0 0 0 0 0 0 0 0 0 0 0 0 0.25 0"/>
<feBlend mode="normal" in2="BackgroundImageFix" result="effect1_dropShadow"/>
<feBlend mode="normal" in="SourceGraphic" in2="effect1_dropShadow" result="shape"/>
</filter>
</defs>
</svg>
