<svg width="138" height="137" viewBox="0 0 138 137" fill="none" xmlns="http://www.w3.org/2000/svg">
<g filter="url(#filter0_d)">
<rect x="3" y="3" width="130" height="128.251" rx="4" fill="#666666"/>
<path d="M11.9443 117.386V107.529H14.7271C15.5848 107.529 16.3431 107.719 17.0021 108.098C17.6612 108.477 18.169 109.016 18.5256 109.716C18.8867 110.415 19.0695 111.219 19.074 112.126V112.756C19.074 113.685 18.8935 114.5 18.5324 115.2C18.1758 115.899 17.6634 116.436 16.9954 116.811C16.3318 117.186 15.5577 117.377 14.673 117.386H11.9443ZM13.2443 108.599V116.323H14.612C15.6141 116.323 16.3928 116.012 16.948 115.389C17.5077 114.766 17.7876 113.879 17.7876 112.729V112.153C17.7876 111.034 17.5235 110.165 16.9954 109.547C16.4718 108.924 15.727 108.608 14.761 108.599H13.2443Z" fill="white"/>
<path d="M28.6277 112.776C28.6277 113.742 28.4652 114.586 28.1402 115.308C27.8152 116.026 27.3548 116.574 26.7589 116.953C26.1631 117.332 25.4679 117.522 24.6735 117.522C23.8971 117.522 23.2087 117.332 22.6084 116.953C22.0081 116.569 21.5409 116.026 21.2068 115.321C20.8773 114.613 20.7081 113.794 20.699 112.864V112.153C20.699 111.205 20.8638 110.368 21.1933 109.641C21.5228 108.915 21.9877 108.36 22.5881 107.976C23.1929 107.588 23.8836 107.394 24.66 107.394C25.4499 107.394 26.145 107.586 26.7454 107.969C27.3502 108.348 27.8152 108.901 28.1402 109.628C28.4652 110.35 28.6277 111.192 28.6277 112.153V112.776ZM27.3344 112.14C27.3344 110.971 27.0997 110.075 26.6303 109.452C26.1608 108.825 25.5041 108.511 24.66 108.511C23.8384 108.511 23.1907 108.825 22.7167 109.452C22.2473 110.075 22.0058 110.941 21.9923 112.052V112.776C21.9923 113.909 22.2292 114.8 22.7032 115.45C23.1817 116.096 23.8384 116.418 24.6735 116.418C25.5131 116.418 26.1631 116.114 26.6235 115.504C27.0839 114.89 27.3209 114.013 27.3344 112.871V112.14Z" fill="white"/>
<path d="M32.7037 114.279L32.8933 115.579L33.1709 114.408L35.1209 107.529H36.2178L38.1204 114.408L38.3912 115.599L38.6011 114.272L40.1313 107.529H41.4381L39.048 117.386H37.8631L35.8318 110.203L35.6761 109.452L35.5204 110.203L33.4146 117.386H32.2298L29.8464 107.529H31.1464L32.7037 114.279Z" fill="white"/>
<path d="M50.4636 117.386H49.1568L44.1938 109.79V117.386H42.887V107.529H44.1938L49.1704 115.159V107.529H50.4636V117.386Z" fill="white"/>
<path d="M56.212 117.386V107.529H58.9949C59.8525 107.529 60.6108 107.719 61.2699 108.098C61.9289 108.477 62.4367 109.016 62.7933 109.716C63.1544 110.415 63.3372 111.219 63.3417 112.126V112.756C63.3417 113.685 63.1612 114.5 62.8001 115.2C62.4435 115.899 61.9311 116.436 61.2631 116.811C60.5995 117.186 59.8254 117.377 58.9407 117.386H56.212ZM57.512 108.599V116.323H58.8798C59.8818 116.323 60.6605 116.012 61.2157 115.389C61.7754 114.766 62.0553 113.879 62.0553 112.729V112.153C62.0553 111.034 61.7912 110.165 61.2631 109.547C60.7395 108.924 59.9947 108.608 59.0287 108.599H57.512Z" fill="white"/>
<path d="M66.7068 117.386H65.4068V107.529H66.7068V117.386Z" fill="white"/>
<path d="M72.7058 113.399H70.3902V117.386H69.0834V107.529H72.3469C73.4574 107.529 74.3105 107.782 74.9063 108.287C75.5067 108.793 75.8068 109.529 75.8068 110.494C75.8068 111.108 75.6398 111.643 75.3058 112.099C74.9763 112.555 74.5159 112.896 73.9245 113.121L76.2402 117.305V117.386H74.8454L72.7058 113.399ZM70.3902 112.336H72.3876C73.0331 112.336 73.5454 112.169 73.9245 111.835C74.3082 111.501 74.5001 111.054 74.5001 110.494C74.5001 109.885 74.3173 109.418 73.9516 109.093C73.5905 108.768 73.0669 108.603 72.3808 108.599H70.3902V112.336Z" fill="white"/>
<path d="M83.2074 112.83H78.935V116.323H83.898V117.386H77.635V107.529H83.8303V108.599H78.935V111.767H83.2074V112.83Z" fill="white"/>
<path d="M92.7678 114.259C92.6459 115.301 92.26 116.107 91.61 116.675C90.9645 117.24 90.1046 117.522 89.0303 117.522C87.8657 117.522 86.9313 117.104 86.2272 116.269C85.5275 115.434 85.1777 114.317 85.1777 112.918V111.97C85.1777 111.054 85.3402 110.248 85.6652 109.553C85.9947 108.858 86.4596 108.326 87.06 107.956C87.6603 107.581 88.3555 107.394 89.1454 107.394C90.1926 107.394 91.0322 107.687 91.6641 108.274C92.2961 108.856 92.664 109.664 92.7678 110.698H91.461C91.3482 109.912 91.1022 109.344 90.723 108.992C90.3483 108.639 89.8225 108.463 89.1454 108.463C88.3148 108.463 87.6626 108.77 87.1886 109.384C86.7192 109.998 86.4844 110.871 86.4844 112.004V112.959C86.4844 114.028 86.7079 114.879 87.1548 115.511C87.6016 116.143 88.2268 116.459 89.0303 116.459C89.7525 116.459 90.3055 116.296 90.6891 115.971C91.0773 115.642 91.3346 115.071 91.461 114.259H92.7678Z" fill="white"/>
<path d="M101.157 108.599H97.9881V117.386H96.6949V108.599H93.5329V107.529H101.157V108.599Z" fill="white"/>
<path d="M104.014 117.386H102.714V107.529H104.014V117.386Z" fill="white"/>
<path d="M113.981 112.776C113.981 113.742 113.818 114.586 113.493 115.308C113.168 116.026 112.708 116.574 112.112 116.953C111.516 117.332 110.821 117.522 110.027 117.522C109.25 117.522 108.562 117.332 107.962 116.953C107.361 116.569 106.894 116.026 106.56 115.321C106.23 114.613 106.061 113.794 106.052 112.864V112.153C106.052 111.205 106.217 110.368 106.546 109.641C106.876 108.915 107.341 108.36 107.941 107.976C108.546 107.588 109.237 107.394 110.013 107.394C110.803 107.394 111.498 107.586 112.099 107.969C112.703 108.348 113.168 108.901 113.493 109.628C113.818 110.35 113.981 111.192 113.981 112.153V112.776ZM112.688 112.14C112.688 110.971 112.453 110.075 111.983 109.452C111.514 108.825 110.857 108.511 110.013 108.511C109.192 108.511 108.544 108.825 108.07 109.452C107.6 110.075 107.359 110.941 107.345 112.052V112.776C107.345 113.909 107.582 114.8 108.056 115.45C108.535 116.096 109.192 116.418 110.027 116.418C110.866 116.418 111.516 116.114 111.977 115.504C112.437 114.89 112.674 114.013 112.688 112.871V112.14Z" fill="white"/>
<path d="M123.507 117.386H122.201L117.238 109.79V117.386H115.931V107.529H117.238L122.214 115.159V107.529H123.507V117.386Z" fill="white"/>
<path d="M69.3275 88.9887L92.684 61.5044C92.9186 61.2244 93.0686 60.8832 93.1166 60.5208C93.1646 60.1584 93.1086 59.7898 92.9551 59.4581C92.8017 59.1265 92.5571 58.8455 92.25 58.6482C91.943 58.4508 91.5862 58.3452 91.2214 58.3437L81.4171 58.3437L81.4171 23.9882C81.4112 23.4798 81.207 22.9939 80.8483 22.6344C80.4896 22.2749 80.0047 22.0703 79.4974 22.0643L56.1865 22.0643C55.6814 22.0703 55.199 22.2757 54.8439 22.6358C54.4888 22.996 54.2897 23.4819 54.2897 23.9882L54.2897 57.8627L44.7825 57.8627C44.4199 57.8634 44.0649 57.9671 43.7587 58.1616C43.4524 58.3561 43.2074 58.6336 43.052 58.9619C42.8965 59.2902 42.8371 59.6559 42.8804 60.0167C42.9238 60.3775 43.0682 60.7186 43.297 61.0005L66.3793 88.9658C66.5601 89.1802 66.7849 89.3529 67.0384 89.472C67.2919 89.5912 67.5682 89.654 67.8482 89.6562C68.1282 89.6584 68.4053 89.5998 68.6607 89.4846C68.916 89.3694 69.1435 89.2003 69.3275 88.9887Z" fill="#C4C4C4" stroke="white" stroke-width="2" stroke-miterlimit="10"/>
<g clip-path="url(#clip0)">
<path d="M64.284 61.3515C64.6155 61.3515 64.9395 61.2532 65.215 61.0691C65.4906 60.8849 65.7054 60.6232 65.8322 60.317C65.9591 60.0108 65.9922 59.6739 65.9276 59.3488C65.8629 59.0238 65.7033 58.7252 65.469 58.4908C65.2346 58.2565 64.936 58.0969 64.611 58.0322C64.2859 57.9675 63.949 58.0007 63.6428 58.1276C63.3366 58.2544 63.0748 58.4692 62.8907 58.7448C62.7066 59.0203 62.6083 59.3443 62.6083 59.6757C62.6083 60.1202 62.7848 60.5464 63.0991 60.8607C63.4134 61.1749 63.8396 61.3515 64.284 61.3515ZM61.1839 64.2003L58.8379 76.0142H60.5974L62.1056 69.3113L63.8651 70.987V76.0142H65.5408V69.7302L63.7813 68.0545L64.284 65.5408C64.8589 66.1978 65.5673 66.7246 66.362 67.0858C67.1567 67.447 68.0194 67.6344 68.8923 67.6355V65.9598C68.1681 65.9707 67.4537 65.7906 66.8212 65.4375C66.1887 65.0845 65.6604 64.5711 65.2895 63.9489L64.4516 62.6083C64.3032 62.3607 64.0951 62.1542 63.8462 62.0078C63.5974 61.8614 63.3158 61.7798 63.0272 61.7704C62.7759 61.7704 62.6083 61.8542 62.3569 61.8542L58 63.6975V67.6355H59.6757V64.7868L61.1839 64.2003Z" fill="#666666"/>
<path d="M76.9108 69.1522C76.8831 68.9923 76.8045 68.8456 76.6868 68.7339C76.5691 68.6222 76.4184 68.5515 76.2573 68.5322L76.1232 67.4346L75.5953 67.9708L75.2434 67.0659L73.8023 70.5682L69.2778 70.7358C68.8815 70.7051 68.5053 70.5487 68.204 70.2896C67.9026 70.0304 67.6918 69.6819 67.6021 69.2947L66.8145 69.5879C66.9084 70.0082 67.1134 70.3955 67.4082 70.7095C67.703 71.0234 68.0767 71.2524 68.4902 71.3726C68.32 71.7446 68.2674 72.1596 68.3392 72.5623C68.4111 72.9651 68.604 73.3363 68.8924 73.6265C68.6243 73.8024 68.3729 73.9616 68.2221 74.0454L67.9959 74.1794L68.155 76.0144L68.9929 75.939L68.8756 74.6319C69.5649 74.2343 70.194 73.7406 70.7441 73.1656H70.8027L74.4475 73.6683L74.6234 76.0982L75.4613 76.0311L75.2937 73.7773C75.8802 73.6181 76.2154 70.7777 76.2154 70.7777C76.5937 70.8191 76.9755 70.7402 77.3064 70.5522C77.6374 70.3642 77.9006 70.0766 78.0587 69.7304L76.9108 69.1522Z" fill="#666666"/>
</g>
</g>
<defs>
<filter id="filter0_d" x="0" y="0" width="138" height="136.251" filterUnits="userSpaceOnUse" color-interpolation-filters="sRGB">
<feFlood flood-opacity="0" result="BackgroundImageFix"/>
<feColorMatrix in="SourceAlpha" type="matrix" values="0 0 0 0 0 0 0 0 0 0 0 0 0 0 0 0 0 0 127 0"/>
<feOffset dx="1" dy="1"/>
<feGaussianBlur stdDeviation="2"/>
<feColorMatrix type="matrix" values="0 0 0 0 0 0 0 0 0 0 0 0 0 0 0 0 0 0 0.25 0"/>
<feBlend mode="normal" in2="BackgroundImageFix" result="effect1_dropShadow"/>
<feBlend mode="normal" in="SourceGraphic" in2="effect1_dropShadow" result="shape"/>
</filter>
<clipPath id="clip0">
<rect width="20" height="18.0478" fill="white" transform="translate(58 58)"/>
</clipPath>
</defs>
</svg>
