<svg width="150" height="150" viewBox="0 0 150 150" fill="none" xmlns="http://www.w3.org/2000/svg">
<rect width="150" height="148" rx="4" fill="#7E8959"/>
<path d="M10.3203 132V120.625H13.5312C14.5208 120.625 15.3958 120.844 16.1562 121.281C16.9167 121.719 17.5026 122.341 17.9141 123.148C18.3307 123.956 18.5417 124.883 18.5469 125.93V126.656C18.5469 127.729 18.3385 128.669 17.9219 129.477C17.5104 130.284 16.9193 130.904 16.1484 131.336C15.3828 131.768 14.4896 131.99 13.4688 132H10.3203ZM11.8203 121.859V130.773H13.3984C14.5547 130.773 15.4531 130.414 16.0938 129.695C16.7396 128.977 17.0625 127.953 17.0625 126.625V125.961C17.0625 124.669 16.7578 123.667 16.1484 122.953C15.5443 122.234 14.6849 121.87 13.5703 121.859H11.8203ZM29.5703 126.68C29.5703 127.794 29.3828 128.768 29.0078 129.602C28.6328 130.43 28.1016 131.062 27.4141 131.5C26.7266 131.938 25.9245 132.156 25.0078 132.156C24.112 132.156 23.3177 131.938 22.625 131.5C21.9323 131.057 21.3932 130.43 21.0078 129.617C20.6276 128.799 20.4323 127.854 20.4219 126.781V125.961C20.4219 124.867 20.612 123.901 20.9922 123.062C21.3724 122.224 21.9089 121.583 22.6016 121.141C23.2995 120.693 24.0964 120.469 24.9922 120.469C25.9036 120.469 26.7057 120.69 27.3984 121.133C28.0964 121.57 28.6328 122.208 29.0078 123.047C29.3828 123.88 29.5703 124.852 29.5703 125.961V126.68ZM28.0781 125.945C28.0781 124.596 27.8073 123.562 27.2656 122.844C26.724 122.12 25.9661 121.758 24.9922 121.758C24.0443 121.758 23.2969 122.12 22.75 122.844C22.2083 123.562 21.9297 124.562 21.9141 125.844V126.68C21.9141 127.987 22.1875 129.016 22.7344 129.766C23.2865 130.51 24.0443 130.883 25.0078 130.883C25.9766 130.883 26.7266 130.531 27.2578 129.828C27.7891 129.12 28.0625 128.107 28.0781 126.789V125.945ZM34.2734 128.414L34.4922 129.914L34.8125 128.562L37.0625 120.625H38.3281L40.5234 128.562L40.8359 129.938L41.0781 128.406L42.8438 120.625H44.3516L41.5938 132H40.2266L37.8828 123.711L37.7031 122.844L37.5234 123.711L35.0938 132H33.7266L30.9766 120.625H32.4766L34.2734 128.414ZM54.7656 132H53.2578L47.5312 123.234V132H46.0234V120.625H47.5312L53.2734 129.43V120.625H54.7656V132ZM61.3984 132V120.625H64.6094C65.599 120.625 66.474 120.844 67.2344 121.281C67.9948 121.719 68.5807 122.341 68.9922 123.148C69.4089 123.956 69.6198 124.883 69.625 125.93V126.656C69.625 127.729 69.4167 128.669 69 129.477C68.5885 130.284 67.9974 130.904 67.2266 131.336C66.4609 131.768 65.5677 131.99 64.5469 132H61.3984ZM62.8984 121.859V130.773H64.4766C65.6328 130.773 66.5312 130.414 67.1719 129.695C67.8177 128.977 68.1406 127.953 68.1406 126.625V125.961C68.1406 124.669 67.8359 123.667 67.2266 122.953C66.6224 122.234 65.763 121.87 64.6484 121.859H62.8984ZM73.5078 132H72.0078V120.625H73.5078V132ZM80.4297 127.398H77.7578V132H76.25V120.625H80.0156C81.2969 120.625 82.2812 120.917 82.9688 121.5C83.6615 122.083 84.0078 122.932 84.0078 124.047C84.0078 124.755 83.8151 125.372 83.4297 125.898C83.0495 126.424 82.5182 126.818 81.8359 127.078L84.5078 131.906V132H82.8984L80.4297 127.398ZM77.7578 126.172H80.0625C80.8073 126.172 81.3984 125.979 81.8359 125.594C82.2786 125.208 82.5 124.693 82.5 124.047C82.5 123.344 82.2891 122.805 81.8672 122.43C81.4505 122.055 80.8464 121.865 80.0547 121.859H77.7578V126.172ZM92.5469 126.742H87.6172V130.773H93.3438V132H86.1172V120.625H93.2656V121.859H87.6172V125.516H92.5469V126.742ZM103.578 128.391C103.438 129.594 102.992 130.523 102.242 131.18C101.497 131.831 100.505 132.156 99.2656 132.156C97.9219 132.156 96.8438 131.674 96.0312 130.711C95.224 129.747 94.8203 128.458 94.8203 126.844V125.75C94.8203 124.693 95.0078 123.763 95.3828 122.961C95.763 122.159 96.2995 121.544 96.9922 121.117C97.6849 120.685 98.487 120.469 99.3984 120.469C100.607 120.469 101.576 120.807 102.305 121.484C103.034 122.156 103.458 123.089 103.578 124.281H102.07C101.94 123.375 101.656 122.719 101.219 122.312C100.786 121.906 100.18 121.703 99.3984 121.703C98.4401 121.703 97.6875 122.057 97.1406 122.766C96.599 123.474 96.3281 124.482 96.3281 125.789V126.891C96.3281 128.125 96.5859 129.107 97.1016 129.836C97.6172 130.565 98.3385 130.93 99.2656 130.93C100.099 130.93 100.737 130.742 101.18 130.367C101.628 129.987 101.924 129.328 102.07 128.391H103.578ZM113.258 121.859H109.602V132H108.109V121.859H104.461V120.625H113.258V121.859ZM116.555 132H115.055V120.625H116.555V132ZM128.055 126.68C128.055 127.794 127.867 128.768 127.492 129.602C127.117 130.43 126.586 131.062 125.898 131.5C125.211 131.938 124.409 132.156 123.492 132.156C122.596 132.156 121.802 131.938 121.109 131.5C120.417 131.057 119.878 130.43 119.492 129.617C119.112 128.799 118.917 127.854 118.906 126.781V125.961C118.906 124.867 119.096 123.901 119.477 123.062C119.857 122.224 120.393 121.583 121.086 121.141C121.784 120.693 122.581 120.469 123.477 120.469C124.388 120.469 125.19 120.69 125.883 121.133C126.581 121.57 127.117 122.208 127.492 123.047C127.867 123.88 128.055 124.852 128.055 125.961V126.68ZM126.562 125.945C126.562 124.596 126.292 123.562 125.75 122.844C125.208 122.12 124.451 121.758 123.477 121.758C122.529 121.758 121.781 122.12 121.234 122.844C120.693 123.562 120.414 124.562 120.398 125.844V126.68C120.398 127.987 120.672 129.016 121.219 129.766C121.771 130.51 122.529 130.883 123.492 130.883C124.461 130.883 125.211 130.531 125.742 129.828C126.273 129.12 126.547 128.107 126.562 126.789V125.945ZM139.047 132H137.539L131.812 123.234V132H130.305V120.625H131.812L137.555 129.43V120.625H139.047V132Z" fill="white"/>
<path d="M76.5317 99.2297L103.482 67.5132C103.752 67.1901 103.925 66.7963 103.981 66.3781C104.036 65.9599 103.971 65.5346 103.794 65.1519C103.617 64.7692 103.335 64.4449 102.981 64.2172C102.627 63.9894 102.215 63.8675 101.794 63.8658L90.4813 63.8658L90.4813 24.2202C90.4745 23.6335 90.2389 23.0727 89.825 22.6579C89.4111 22.243 88.8516 22.0069 88.2663 22L61.3691 22C60.7862 22.007 60.2296 22.2439 59.8199 22.6595C59.4102 23.0751 59.1804 23.6359 59.1805 24.2202L59.1804 63.3108L48.2106 63.3108C47.7922 63.3116 47.3827 63.4312 47.0293 63.6557C46.6759 63.8802 46.3932 64.2004 46.2138 64.5792C46.0345 64.9581 45.9659 65.3801 46.0159 65.7964C46.0659 66.2128 46.2326 66.6064 46.4966 66.9317L73.1301 99.2033C73.3386 99.4507 73.598 99.6499 73.8905 99.7874C74.183 99.9249 74.5017 99.9974 74.8248 99.9999C75.1479 100.002 75.4677 99.9349 75.7623 99.802C76.057 99.669 76.3194 99.4738 76.5317 99.2297Z" stroke="white" stroke-width="2" stroke-miterlimit="10"/>
<g clip-path="url(#clip0)">
<path d="M70.625 45.125C69.25 45.125 68.125 46.25 68.125 47.625C68.125 49 69.25 50.125 70.625 50.125C72 50.125 73.125 49 73.125 47.625C73.125 46.25 72 45.125 70.625 45.125ZM83.75 37C87.25 37 90 34.25 90 30.75C90 27.25 87.25 24.5 83.75 24.5C80.25 24.5 77.5 27.25 77.5 30.75C77.5 34.25 80.25 37 83.75 37ZM83.75 26.375C86.125 26.375 88.125 28.375 88.125 30.75C88.125 33.125 86.125 35.125 83.75 35.125C81.375 35.125 79.375 33.125 79.375 30.75C79.375 28.375 81.375 26.375 83.75 26.375ZM76.5 38.875L73.5 41.875L72.5 40.875C70.875 39.25 68.75 38.25 66.125 38.25L66.125 40.75C68 40.75 69.5 41.5 70.625 42.625L73 45C73.625 45.5 74.25 45.75 75 45.75C75.75 45.75 76.375 45.5 76.75 45L80.25 41.5C80.75 41 81 40.375 81 39.75C81 39 80.75 38.375 80.25 38L76.25 34.5L76.25 28.25L73.75 28.25L73.75 36L76.5 38.875ZM66.25 37C69.75 37 72.5 34.25 72.5 30.75C72.5 27.25 69.75 24.5 66.25 24.5C62.75 24.5 60 27.25 60 30.75C60 34.25 62.75 37 66.25 37ZM66.25 26.375C68.625 26.375 70.625 28.375 70.625 30.75C70.625 33.125 68.625 35.125 66.25 35.125C63.875 35.125 61.875 33.125 61.875 30.75C61.875 28.375 63.875 26.375 66.25 26.375Z" fill="white"/>
</g>
<defs>
<clipPath id="clip0">
<rect width="30" height="30" fill="white" transform="translate(90 52) rotate(-180)"/>
</clipPath>
</defs>
</svg>
