<svg width="150" height="150" viewBox="0 0 150 150" fill="none" xmlns="http://www.w3.org/2000/svg">
<rect width="150" height="148" rx="4" fill="#507282"/>
<path d="M73.4683 21.7703L46.5184 53.4868C46.2478 53.8099 46.0747 54.2037 46.0193 54.6219C45.9639 55.0401 46.0285 55.4654 46.2056 55.8481C46.3827 56.2308 46.6649 56.5551 47.0192 56.7828C47.3734 57.0106 47.7851 57.1325 48.206 57.1342H59.5187V96.7798C59.5255 97.3665 59.7611 97.9273 60.175 98.3421C60.5889 98.757 61.1484 98.9931 61.7337 99H88.6309C89.2138 98.993 89.7704 98.7561 90.1801 98.3405C90.5898 97.9248 90.8196 97.3641 90.8196 96.7798V57.6892H101.789C102.208 57.6884 102.617 57.5688 102.971 57.3443C103.324 57.1198 103.607 56.7996 103.786 56.4208C103.966 56.0419 104.034 55.6199 103.984 55.2035C103.934 54.7872 103.767 54.3936 103.503 54.0683L76.8699 21.7967C76.6614 21.5493 76.402 21.3501 76.1095 21.2126C75.817 21.0751 75.4983 21.0026 75.1752 21.0001C74.8521 20.9976 74.5323 21.0651 74.2377 21.198C73.943 21.331 73.6806 21.5262 73.4683 21.7703Z" stroke="white" stroke-width="2" stroke-miterlimit="10"/>
<path d="M32.3281 120.625V128.359C32.3229 129.432 31.9844 130.31 31.3125 130.992C30.6458 131.674 29.7396 132.057 28.5938 132.141L28.1953 132.156C26.9505 132.156 25.9583 131.82 25.2188 131.148C24.4792 130.477 24.1042 129.552 24.0938 128.375V120.625H25.5781V128.328C25.5781 129.151 25.8047 129.792 26.2578 130.25C26.7109 130.703 27.3568 130.93 28.1953 130.93C29.0443 130.93 29.6927 130.703 30.1406 130.25C30.5938 129.797 30.8203 129.159 30.8203 128.336V120.625H32.3281ZM36.1953 127.547V132H34.6953V120.625H38.8906C40.1354 120.625 41.1094 120.943 41.8125 121.578C42.5208 122.214 42.875 123.055 42.875 124.102C42.875 125.206 42.5286 126.057 41.8359 126.656C41.1484 127.25 40.1615 127.547 38.875 127.547H36.1953ZM36.1953 126.32H38.8906C39.6927 126.32 40.3073 126.133 40.7344 125.758C41.1615 125.378 41.375 124.831 41.375 124.117C41.375 123.44 41.1615 122.898 40.7344 122.492C40.3073 122.086 39.7214 121.875 38.9766 121.859H36.1953V126.32ZM48.7578 132V120.625H51.9688C52.9583 120.625 53.8333 120.844 54.5938 121.281C55.3542 121.719 55.9401 122.341 56.3516 123.148C56.7682 123.956 56.9792 124.883 56.9844 125.93V126.656C56.9844 127.729 56.776 128.669 56.3594 129.477C55.9479 130.284 55.3568 130.904 54.5859 131.336C53.8203 131.768 52.9271 131.99 51.9062 132H48.7578ZM50.2578 121.859V130.773H51.8359C52.9922 130.773 53.8906 130.414 54.5312 129.695C55.1771 128.977 55.5 127.953 55.5 126.625V125.961C55.5 124.669 55.1953 123.667 54.5859 122.953C53.9818 122.234 53.1224 121.87 52.0078 121.859H50.2578ZM60.8672 132H59.3672V120.625H60.8672V132ZM67.7891 127.398H65.1172V132H63.6094V120.625H67.375C68.6562 120.625 69.6406 120.917 70.3281 121.5C71.0208 122.083 71.3672 122.932 71.3672 124.047C71.3672 124.755 71.1745 125.372 70.7891 125.898C70.4089 126.424 69.8776 126.818 69.1953 127.078L71.8672 131.906V132H70.2578L67.7891 127.398ZM65.1172 126.172H67.4219C68.1667 126.172 68.7578 125.979 69.1953 125.594C69.638 125.208 69.8594 124.693 69.8594 124.047C69.8594 123.344 69.6484 122.805 69.2266 122.43C68.8099 122.055 68.2057 121.865 67.4141 121.859H65.1172V126.172ZM79.9062 126.742H74.9766V130.773H80.7031V132H73.4766V120.625H80.625V121.859H74.9766V125.516H79.9062V126.742ZM90.9375 128.391C90.7969 129.594 90.3516 130.523 89.6016 131.18C88.8568 131.831 87.8646 132.156 86.625 132.156C85.2812 132.156 84.2031 131.674 83.3906 130.711C82.5833 129.747 82.1797 128.458 82.1797 126.844V125.75C82.1797 124.693 82.3672 123.763 82.7422 122.961C83.1224 122.159 83.6589 121.544 84.3516 121.117C85.0443 120.685 85.8464 120.469 86.7578 120.469C87.9661 120.469 88.9349 120.807 89.6641 121.484C90.3932 122.156 90.8177 123.089 90.9375 124.281H89.4297C89.2995 123.375 89.0156 122.719 88.5781 122.312C88.1458 121.906 87.5391 121.703 86.7578 121.703C85.7995 121.703 85.0469 122.057 84.5 122.766C83.9583 123.474 83.6875 124.482 83.6875 125.789V126.891C83.6875 128.125 83.9453 129.107 84.4609 129.836C84.9766 130.565 85.6979 130.93 86.625 130.93C87.4583 130.93 88.0964 130.742 88.5391 130.367C88.987 129.987 89.2839 129.328 89.4297 128.391H90.9375ZM100.617 121.859H96.9609V132H95.4688V121.859H91.8203V120.625H100.617V121.859ZM103.914 132H102.414V120.625H103.914V132ZM115.414 126.68C115.414 127.794 115.227 128.768 114.852 129.602C114.477 130.43 113.945 131.062 113.258 131.5C112.57 131.938 111.768 132.156 110.852 132.156C109.956 132.156 109.161 131.938 108.469 131.5C107.776 131.057 107.237 130.43 106.852 129.617C106.471 128.799 106.276 127.854 106.266 126.781V125.961C106.266 124.867 106.456 123.901 106.836 123.062C107.216 122.224 107.753 121.583 108.445 121.141C109.143 120.693 109.94 120.469 110.836 120.469C111.747 120.469 112.549 120.69 113.242 121.133C113.94 121.57 114.477 122.208 114.852 123.047C115.227 123.88 115.414 124.852 115.414 125.961V126.68ZM113.922 125.945C113.922 124.596 113.651 123.562 113.109 122.844C112.568 122.12 111.81 121.758 110.836 121.758C109.888 121.758 109.141 122.12 108.594 122.844C108.052 123.562 107.773 124.562 107.758 125.844V126.68C107.758 127.987 108.031 129.016 108.578 129.766C109.13 130.51 109.888 130.883 110.852 130.883C111.82 130.883 112.57 130.531 113.102 129.828C113.633 129.12 113.906 128.107 113.922 126.789V125.945ZM126.406 132H124.898L119.172 123.234V132H117.664V120.625H119.172L124.914 129.43V120.625H126.406V132Z" fill="white"/>
<g clip-path="url(#clip0)">
<path d="M70.855 81.0854C71.2693 81.0854 71.6743 80.9656 72.0188 80.7412C72.3633 80.5167 72.6317 80.1977 72.7903 79.8244C72.9488 79.4512 72.9903 79.0404 72.9095 78.6442C72.8287 78.248 72.6292 77.884 72.3362 77.5983C72.0433 77.3126 71.67 77.1181 71.2637 77.0393C70.8574 76.9604 70.4362 77.0009 70.0534 77.1555C69.6707 77.3101 69.3436 77.5719 69.1134 77.9078C68.8832 78.2438 68.7604 78.6387 68.7604 79.0427C68.7604 79.5845 68.9811 80.104 69.3739 80.4871C69.7667 80.8702 70.2995 81.0854 70.855 81.0854ZM66.9799 84.558L64.0473 98.9591H66.2468L68.132 90.7883L70.3314 92.831V98.9591H72.4261V91.299L70.2266 89.2563L70.855 86.1922C71.5736 86.9931 72.4591 87.6351 73.4525 88.0755C74.4459 88.5158 75.5242 88.7443 76.6154 88.7456V86.7029C75.7101 86.7162 74.8171 86.4966 74.0265 86.0663C73.2359 85.6359 72.5755 85.01 72.1119 84.2516L71.0645 82.6175C70.879 82.3156 70.6188 82.0639 70.3078 81.8855C69.9967 81.707 69.6447 81.6075 69.284 81.5961C68.9698 81.5961 68.7604 81.6982 68.4462 81.6982L63 83.9452V88.7456H65.0947V85.273L66.9799 84.558" fill="white"/>
<path d="M86.6385 90.5944C86.6039 90.3995 86.5057 90.2207 86.3585 90.0845C86.2113 89.9483 86.023 89.8621 85.8216 89.8386L85.654 88.5007L84.9942 89.1543L84.5543 88.0513L82.7529 92.3205L77.0972 92.5248C76.6019 92.4873 76.1317 92.2968 75.755 91.9809C75.3783 91.6649 75.1147 91.2401 75.0026 90.7681L74.0181 91.1256C74.1355 91.6379 74.3918 92.11 74.7603 92.4927C75.1287 92.8754 75.5958 93.1545 76.1127 93.301C75.9 93.7545 75.8342 94.2604 75.924 94.7513C76.0138 95.2422 76.2551 95.6948 76.6155 96.0485C76.2803 96.263 75.9661 96.457 75.7776 96.5592L75.4948 96.7226L75.6938 98.9593L76.7411 98.8674L76.5945 97.2741C77.4561 96.7895 78.2425 96.1877 78.9301 95.4867H79.0034L83.5593 96.0996L83.7793 99.0615L84.8266 98.9798L84.6171 96.2323C85.3503 96.0383 85.7692 92.5759 85.7692 92.5759C86.2422 92.6264 86.7194 92.5302 87.1331 92.301C87.5467 92.0718 87.8757 91.7212 88.0734 91.2992L86.6385 90.5944Z" fill="white"/>
</g>
<defs>
<clipPath id="clip0">
<rect width="25" height="22" fill="white" transform="translate(63 77)"/>
</clipPath>
</defs>
</svg>
