<svg width="138" height="137" viewBox="0 0 138 137" fill="none" xmlns="http://www.w3.org/2000/svg">
<g filter="url(#filter0_d)">
<rect x="3" y="3" width="130" height="128.251" rx="4" fill="#FF6E00"/>
<path d="M66.6725 21.8653L43.316 49.3496C43.0814 49.6296 42.9314 49.9708 42.8834 50.3332C42.8354 50.6956 42.8914 51.0642 43.0449 51.3959C43.1983 51.7275 43.4429 52.0085 43.75 52.2058C44.057 52.4032 44.4138 52.5088 44.7786 52.5103H54.5829V86.8658C54.5888 87.3742 54.793 87.8601 55.1517 88.2196C55.5104 88.5791 55.9953 88.7837 56.5026 88.7897H79.8135C80.3186 88.7837 80.8011 88.5783 81.1561 88.2182C81.5112 87.858 81.7103 87.3721 81.7103 86.8658V52.9913H91.2175C91.5801 52.9906 91.9351 52.8869 92.2413 52.6924C92.5476 52.4979 92.7926 52.2204 92.948 51.8921C93.1035 51.5638 93.1629 51.1981 93.1196 50.8373C93.0762 50.4765 92.9318 50.1354 92.703 49.8535L69.6207 21.8882C69.4399 21.6738 69.2151 21.5011 68.9616 21.382C68.7081 21.2628 68.4318 21.2 68.1518 21.1978C67.8718 21.1956 67.5947 21.2542 67.3393 21.3694C67.084 21.4846 66.8565 21.6537 66.6725 21.8653Z" fill="#C4C4C4" stroke="white" stroke-width="2" stroke-miterlimit="10"/>
<path d="M31.0178 107.529V114.232C31.0133 115.161 30.7199 115.922 30.1376 116.513C29.5598 117.104 28.7744 117.436 27.7813 117.508L27.436 117.522C26.3572 117.522 25.4973 117.231 24.8563 116.648C24.2154 116.066 23.8904 115.265 23.8813 114.245V107.529H25.1678V114.204C25.1678 114.918 25.3642 115.473 25.7569 115.87C26.1496 116.263 26.7093 116.459 27.436 116.459C28.1718 116.459 28.7338 116.263 29.122 115.87C29.5147 115.477 29.711 114.924 29.711 114.211V107.529H31.0178Z" fill="white"/>
<path d="M34.3694 113.527V117.386H33.0694V107.529H36.7053C37.7841 107.529 38.6282 107.805 39.2376 108.355C39.8515 108.906 40.1584 109.635 40.1584 110.542C40.1584 111.499 39.8583 112.237 39.2579 112.756C38.6621 113.27 37.8067 113.527 36.6918 113.527H34.3694ZM34.3694 112.465H36.7053C37.4004 112.465 37.9331 112.302 38.3032 111.977C38.6734 111.648 38.8584 111.174 38.8584 110.555C38.8584 109.969 38.6734 109.499 38.3032 109.147C37.9331 108.795 37.4253 108.612 36.7798 108.599H34.3694V112.465Z" fill="white"/>
<path d="M45.2569 117.386V107.529H48.0397C48.8973 107.529 49.6557 107.719 50.3147 108.098C50.9737 108.477 51.4815 109.016 51.8381 109.716C52.1992 110.415 52.382 111.219 52.3866 112.126V112.756C52.3866 113.685 52.206 114.5 51.8449 115.2C51.4883 115.899 50.976 116.436 50.3079 116.811C49.6444 117.186 48.8702 117.377 47.9855 117.386H45.2569ZM46.5569 108.599V116.323H47.9246C48.9267 116.323 49.7053 116.012 50.2605 115.389C50.8202 114.766 51.1001 113.879 51.1001 112.729V112.153C51.1001 111.034 50.836 110.165 50.3079 109.547C49.7843 108.924 49.0395 108.608 48.0735 108.599H46.5569Z" fill="white"/>
<path d="M55.7517 117.386H54.4517V107.529H55.7517V117.386Z" fill="white"/>
<path d="M61.7506 113.399H59.435V117.386H58.1282V107.529H61.3918C62.5022 107.529 63.3553 107.782 63.9511 108.287C64.5515 108.793 64.8517 109.529 64.8517 110.494C64.8517 111.108 64.6846 111.643 64.3506 112.099C64.0211 112.555 63.5607 112.896 62.9694 113.121L65.285 117.305V117.386H63.8902L61.7506 113.399ZM59.435 112.336H61.4324C62.0779 112.336 62.5902 112.169 62.9694 111.835C63.353 111.501 63.5449 111.054 63.5449 110.494C63.5449 109.885 63.3621 109.418 62.9964 109.093C62.6353 108.768 62.1117 108.603 61.4256 108.599H59.435V112.336Z" fill="white"/>
<path d="M72.2522 112.83H67.9798V116.323H72.9428V117.386H66.6798V107.529H72.8751V108.599H67.9798V111.767H72.2522V112.83Z" fill="white"/>
<path d="M81.8126 114.259C81.6907 115.301 81.3048 116.107 80.6548 116.675C80.0093 117.24 79.1494 117.522 78.0751 117.522C76.9105 117.522 75.9761 117.104 75.272 116.269C74.5723 115.434 74.2225 114.317 74.2225 112.918V111.97C74.2225 111.054 74.385 110.248 74.71 109.553C75.0395 108.858 75.5044 108.326 76.1048 107.956C76.7051 107.581 77.4003 107.394 78.1902 107.394C79.2374 107.394 80.077 107.687 80.709 108.274C81.3409 108.856 81.7088 109.664 81.8126 110.698H80.5058C80.393 109.912 80.147 109.344 79.7678 108.992C79.3932 108.639 78.8673 108.463 78.1902 108.463C77.3596 108.463 76.7074 108.77 76.2334 109.384C75.764 109.998 75.5293 110.871 75.5293 112.004V112.959C75.5293 114.028 75.7527 114.879 76.1996 115.511C76.6465 116.143 77.2716 116.459 78.0751 116.459C78.7973 116.459 79.3503 116.296 79.7339 115.971C80.1221 115.642 80.3794 115.071 80.5058 114.259H81.8126Z" fill="white"/>
<path d="M90.2017 108.599H87.0329V117.386H85.7397V108.599H82.5777V107.529H90.2017V108.599Z" fill="white"/>
<path d="M93.0589 117.386H91.7589V107.529H93.0589V117.386Z" fill="white"/>
<path d="M103.026 112.776C103.026 113.742 102.863 114.586 102.538 115.308C102.213 116.026 101.753 116.574 101.157 116.953C100.561 117.332 99.8659 117.522 99.0714 117.522C98.2951 117.522 97.6067 117.332 97.0063 116.953C96.406 116.569 95.9388 116.026 95.6048 115.321C95.2753 114.613 95.106 113.794 95.097 112.864V112.153C95.097 111.205 95.2617 110.368 95.5912 109.641C95.9208 108.915 96.3857 108.36 96.986 107.976C97.5909 107.588 98.2815 107.394 99.0579 107.394C99.8478 107.394 100.543 107.586 101.143 107.969C101.748 108.348 102.213 108.901 102.538 109.628C102.863 110.35 103.026 111.192 103.026 112.153V112.776ZM101.732 112.14C101.732 110.971 101.498 110.075 101.028 109.452C100.559 108.825 99.902 108.511 99.0579 108.511C98.2364 108.511 97.5886 108.825 97.1147 109.452C96.6452 110.075 96.4037 110.941 96.3902 112.052V112.776C96.3902 113.909 96.6272 114.8 97.1011 115.45C97.5796 116.096 98.2364 116.418 99.0714 116.418C99.911 116.418 100.561 116.114 101.021 115.504C101.482 114.89 101.719 114.013 101.732 112.871V112.14Z" fill="white"/>
<path d="M112.552 117.386H111.245L106.282 109.79V117.386H104.976V107.529H106.282L111.259 115.159V107.529H112.552V117.386Z" fill="white"/>
<g clip-path="url(#clip0)">
<path d="M64.284 61.3515C64.6155 61.3515 64.9395 61.2532 65.215 61.0691C65.4906 60.8849 65.7054 60.6232 65.8322 60.317C65.9591 60.0108 65.9922 59.6739 65.9276 59.3488C65.8629 59.0238 65.7033 58.7252 65.469 58.4908C65.2346 58.2565 64.936 58.0969 64.611 58.0322C64.2859 57.9675 63.949 58.0007 63.6428 58.1276C63.3366 58.2544 63.0748 58.4692 62.8907 58.7448C62.7066 59.0203 62.6083 59.3443 62.6083 59.6757C62.6083 60.1202 62.7848 60.5464 63.0991 60.8607C63.4134 61.1749 63.8396 61.3515 64.284 61.3515ZM61.1839 64.2003L58.8379 76.0142H60.5974L62.1056 69.3113L63.8651 70.987V76.0142H65.5408V69.7302L63.7813 68.0545L64.284 65.5408C64.8589 66.1978 65.5673 66.7246 66.362 67.0858C67.1567 67.447 68.0194 67.6344 68.8923 67.6355V65.9598C68.1681 65.9707 67.4537 65.7906 66.8212 65.4375C66.1887 65.0845 65.6604 64.5711 65.2895 63.9489L64.4516 62.6083C64.3032 62.3607 64.0951 62.1542 63.8462 62.0078C63.5974 61.8614 63.3158 61.7798 63.0272 61.7704C62.7759 61.7704 62.6083 61.8542 62.3569 61.8542L58 63.6975V67.6355H59.6757V64.7868L61.1839 64.2003Z" fill="#666666"/>
<path d="M76.9108 69.1522C76.8831 68.9923 76.8045 68.8456 76.6868 68.7339C76.5691 68.6222 76.4184 68.5515 76.2573 68.5322L76.1232 67.4346L75.5953 67.9708L75.2434 67.0659L73.8023 70.5682L69.2778 70.7358C68.8815 70.7051 68.5053 70.5487 68.204 70.2896C67.9026 70.0304 67.6918 69.6819 67.6021 69.2947L66.8145 69.5879C66.9084 70.0082 67.1134 70.3955 67.4082 70.7095C67.703 71.0234 68.0767 71.2524 68.4902 71.3726C68.32 71.7446 68.2674 72.1596 68.3392 72.5623C68.4111 72.9651 68.604 73.3363 68.8924 73.6265C68.6243 73.8024 68.3729 73.9616 68.2221 74.0454L67.9959 74.1794L68.155 76.0144L68.9929 75.939L68.8756 74.6319C69.5649 74.2343 70.194 73.7406 70.7441 73.1656H70.8027L74.4475 73.6683L74.6234 76.0982L75.4613 76.0311L75.2937 73.7773C75.8802 73.6181 76.2154 70.7777 76.2154 70.7777C76.5937 70.8191 76.9755 70.7402 77.3064 70.5522C77.6374 70.3642 77.9006 70.0766 78.0587 69.7304L76.9108 69.1522Z" fill="#666666"/>
</g>
</g>
<defs>
<filter id="filter0_d" x="0" y="0" width="138" height="136.251" filterUnits="userSpaceOnUse" color-interpolation-filters="sRGB">
<feFlood flood-opacity="0" result="BackgroundImageFix"/>
<feColorMatrix in="SourceAlpha" type="matrix" values="0 0 0 0 0 0 0 0 0 0 0 0 0 0 0 0 0 0 127 0"/>
<feOffset dx="1" dy="1"/>
<feGaussianBlur stdDeviation="2"/>
<feColorMatrix type="matrix" values="0 0 0 0 0 0 0 0 0 0 0 0 0 0 0 0 0 0 0.25 0"/>
<feBlend mode="normal" in2="BackgroundImageFix" result="effect1_dropShadow"/>
<feBlend mode="normal" in="SourceGraphic" in2="effect1_dropShadow" result="shape"/>
</filter>
<clipPath id="clip0">
<rect width="20" height="18.0478" fill="white" transform="translate(58 58)"/>
</clipPath>
</defs>
</svg>
