<svg width="138" height="137" viewBox="0 0 138 137" fill="none" xmlns="http://www.w3.org/2000/svg">
<g filter="url(#filter0_d)">
<rect x="3" y="3" width="130" height="128.251" rx="4" fill="#FF6E00"/>
<path d="M66.6725 21.8653L43.316 49.3496C43.0814 49.6296 42.9314 49.9708 42.8834 50.3332C42.8354 50.6956 42.8914 51.0642 43.0449 51.3959C43.1983 51.7275 43.4429 52.0085 43.75 52.2058C44.057 52.4032 44.4138 52.5088 44.7786 52.5103H54.5829V86.8658C54.5888 87.3742 54.793 87.8601 55.1517 88.2196C55.5104 88.5791 55.9953 88.7837 56.5026 88.7897H79.8135C80.3186 88.7837 80.8011 88.5783 81.1561 88.2182C81.5112 87.858 81.7103 87.3721 81.7103 86.8658V52.9913H91.2175C91.5801 52.9906 91.9351 52.8869 92.2413 52.6924C92.5476 52.4979 92.7926 52.2204 92.948 51.8921C93.1035 51.5638 93.1629 51.1981 93.1196 50.8373C93.0762 50.4765 92.9318 50.1354 92.703 49.8535L69.6207 21.8882C69.4399 21.6738 69.2151 21.5011 68.9616 21.382C68.7081 21.2628 68.4318 21.2 68.1518 21.1978C67.8718 21.1956 67.5947 21.2542 67.3393 21.3694C67.084 21.4846 66.8565 21.6537 66.6725 21.8653Z" fill="#C4C4C4" stroke="white" stroke-width="2" stroke-miterlimit="10"/>
<path d="M31.0178 107.529V114.232C31.0133 115.161 30.7199 115.922 30.1376 116.513C29.5598 117.104 28.7744 117.436 27.7813 117.508L27.436 117.522C26.3572 117.522 25.4973 117.231 24.8563 116.648C24.2154 116.066 23.8904 115.265 23.8813 114.245V107.529H25.1678V114.204C25.1678 114.918 25.3642 115.473 25.7569 115.87C26.1496 116.263 26.7093 116.459 27.436 116.459C28.1718 116.459 28.7338 116.263 29.122 115.87C29.5147 115.477 29.711 114.924 29.711 114.211V107.529H31.0178Z" fill="white"/>
<path d="M34.3694 113.527V117.386H33.0694V107.529H36.7053C37.7841 107.529 38.6282 107.805 39.2376 108.355C39.8515 108.906 40.1584 109.635 40.1584 110.542C40.1584 111.499 39.8583 112.237 39.2579 112.756C38.6621 113.27 37.8067 113.527 36.6918 113.527H34.3694ZM34.3694 112.465H36.7053C37.4004 112.465 37.9331 112.302 38.3032 111.977C38.6734 111.648 38.8584 111.174 38.8584 110.555C38.8584 109.969 38.6734 109.499 38.3032 109.147C37.9331 108.795 37.4253 108.612 36.7798 108.599H34.3694V112.465Z" fill="white"/>
<path d="M45.2569 117.386V107.529H48.0397C48.8973 107.529 49.6557 107.719 50.3147 108.098C50.9737 108.477 51.4815 109.016 51.8381 109.716C52.1992 110.415 52.382 111.219 52.3866 112.126V112.756C52.3866 113.685 52.206 114.5 51.8449 115.2C51.4883 115.899 50.976 116.436 50.3079 116.811C49.6444 117.186 48.8702 117.377 47.9855 117.386H45.2569ZM46.5569 108.599V116.323H47.9246C48.9267 116.323 49.7053 116.012 50.2605 115.389C50.8202 114.766 51.1001 113.879 51.1001 112.729V112.153C51.1001 111.034 50.836 110.165 50.3079 109.547C49.7843 108.924 49.0395 108.608 48.0735 108.599H46.5569Z" fill="white"/>
<path d="M55.7517 117.386H54.4517V107.529H55.7517V117.386Z" fill="white"/>
<path d="M61.7506 113.399H59.435V117.386H58.1282V107.529H61.3918C62.5022 107.529 63.3553 107.782 63.9511 108.287C64.5515 108.793 64.8517 109.529 64.8517 110.494C64.8517 111.108 64.6846 111.643 64.3506 112.099C64.0211 112.555 63.5607 112.896 62.9694 113.121L65.285 117.305V117.386H63.8902L61.7506 113.399ZM59.435 112.336H61.4324C62.0779 112.336 62.5902 112.169 62.9694 111.835C63.353 111.501 63.5449 111.054 63.5449 110.494C63.5449 109.885 63.3621 109.418 62.9964 109.093C62.6353 108.768 62.1117 108.603 61.4256 108.599H59.435V112.336Z" fill="white"/>
<path d="M72.2522 112.83H67.9798V116.323H72.9428V117.386H66.6798V107.529H72.8751V108.599H67.9798V111.767H72.2522V112.83Z" fill="white"/>
<path d="M81.8126 114.259C81.6907 115.301 81.3048 116.107 80.6548 116.675C80.0093 117.24 79.1494 117.522 78.0751 117.522C76.9105 117.522 75.9761 117.104 75.272 116.269C74.5723 115.434 74.2225 114.317 74.2225 112.918V111.97C74.2225 111.054 74.385 110.248 74.71 109.553C75.0395 108.858 75.5044 108.326 76.1048 107.956C76.7051 107.581 77.4003 107.394 78.1902 107.394C79.2374 107.394 80.077 107.687 80.709 108.274C81.3409 108.856 81.7088 109.664 81.8126 110.698H80.5058C80.393 109.912 80.147 109.344 79.7678 108.992C79.3932 108.639 78.8673 108.463 78.1902 108.463C77.3596 108.463 76.7074 108.77 76.2334 109.384C75.764 109.998 75.5293 110.871 75.5293 112.004V112.959C75.5293 114.028 75.7527 114.879 76.1996 115.511C76.6465 116.143 77.2716 116.459 78.0751 116.459C78.7973 116.459 79.3503 116.296 79.7339 115.971C80.1221 115.642 80.3794 115.071 80.5058 114.259H81.8126Z" fill="white"/>
<path d="M90.2017 108.599H87.0329V117.386H85.7397V108.599H82.5777V107.529H90.2017V108.599Z" fill="white"/>
<path d="M93.0589 117.386H91.7589V107.529H93.0589V117.386Z" fill="white"/>
<path d="M103.026 112.776C103.026 113.742 102.863 114.586 102.538 115.308C102.213 116.026 101.753 116.574 101.157 116.953C100.561 117.332 99.8659 117.522 99.0714 117.522C98.2951 117.522 97.6067 117.332 97.0063 116.953C96.406 116.569 95.9388 116.026 95.6048 115.321C95.2753 114.613 95.106 113.794 95.097 112.864V112.153C95.097 111.205 95.2617 110.368 95.5912 109.641C95.9208 108.915 96.3857 108.36 96.986 107.976C97.5909 107.588 98.2815 107.394 99.0579 107.394C99.8478 107.394 100.543 107.586 101.143 107.969C101.748 108.348 102.213 108.901 102.538 109.628C102.863 110.35 103.026 111.192 103.026 112.153V112.776ZM101.732 112.14C101.732 110.971 101.498 110.075 101.028 109.452C100.559 108.825 99.902 108.511 99.0579 108.511C98.2364 108.511 97.5886 108.825 97.1147 109.452C96.6452 110.075 96.4037 110.941 96.3902 112.052V112.776C96.3902 113.909 96.6272 114.8 97.1011 115.45C97.5796 116.096 98.2364 116.418 99.0714 116.418C99.911 116.418 100.561 116.114 101.021 115.504C101.482 114.89 101.719 114.013 101.732 112.871V112.14Z" fill="white"/>
<path d="M112.552 117.386H111.245L106.282 109.79V117.386H104.976V107.529H106.282L111.259 115.159V107.529H112.552V117.386Z" fill="white"/>
<path d="M70.9167 60.3333C71.2463 60.3333 71.5685 60.2356 71.8426 60.0525C72.1167 59.8693 72.3303 59.609 72.4565 59.3045C72.5826 58.9999 72.6156 58.6648 72.5513 58.3415C72.487 58.0182 72.3283 57.7212 72.0952 57.4882C71.8621 57.2551 71.5651 57.0963 71.2418 57.032C70.9185 56.9677 70.5834 57.0007 70.2789 57.1269C69.9743 57.253 69.714 57.4666 69.5309 57.7407C69.3477 58.0148 69.25 58.337 69.25 58.6667C69.25 59.1087 69.4256 59.5326 69.7382 59.8452C70.0507 60.1577 70.4746 60.3333 70.9167 60.3333ZM62.1667 65.75C61.0616 65.75 60.0018 66.189 59.2204 66.9704C58.439 67.7518 58 68.8116 58 69.9167C58 71.0217 58.439 72.0815 59.2204 72.8629C60.0018 73.6443 61.0616 74.0833 62.1667 74.0833C63.2717 74.0833 64.3315 73.6443 65.1129 72.8629C65.8943 72.0815 66.3333 71.0217 66.3333 69.9167C66.3333 68.8116 65.8943 67.7518 65.1129 66.9704C64.3315 66.189 63.2717 65.75 62.1667 65.75ZM62.1667 72.8333C61.3931 72.8333 60.6513 72.526 60.1043 71.9791C59.5573 71.4321 59.25 70.6902 59.25 69.9167C59.25 69.1431 59.5573 68.4013 60.1043 67.8543C60.6513 67.3073 61.3931 67 62.1667 67C62.9402 67 63.6821 67.3073 64.2291 67.8543C64.776 68.4013 65.0833 69.1431 65.0833 69.9167C65.0833 70.6902 64.776 71.4321 64.2291 71.9791C63.6821 72.526 62.9402 72.8333 62.1667 72.8333ZM67 64.5L69 62.5L69.6667 63.1667C70.2196 63.731 70.8815 64.1771 71.612 64.4779C72.3426 64.7787 73.1267 64.928 73.9167 64.9167V63.25C73.3584 63.2533 72.8051 63.1443 72.2898 62.9296C71.7744 62.7148 71.3075 62.3987 70.9167 62L69.3333 60.4167C68.9633 60.0954 68.49 59.9179 68 59.9167C67.7799 59.9022 67.5595 59.94 67.3567 60.0269C67.154 60.1137 66.9747 60.2473 66.8333 60.4167L64.5 62.75C64.186 63.0577 64.0063 63.4771 64 63.9167C63.9855 64.1368 64.0233 64.3572 64.1102 64.5599C64.1971 64.7627 64.3306 64.942 64.5 65.0833L67.1667 67.4167V71.5833H68.8333V66.4167L67 64.5ZM73.8333 65.75C73.0092 65.75 72.2037 65.9944 71.5185 66.4522C70.8333 66.9101 70.2992 67.5608 69.9838 68.3222C69.6685 69.0835 69.586 69.9213 69.7467 70.7295C69.9075 71.5378 70.3043 72.2802 70.8871 72.8629C71.4698 73.4457 72.2122 73.8425 73.0205 74.0033C73.8287 74.164 74.6665 74.0815 75.4278 73.7662C76.1892 73.4508 76.84 72.9167 77.2978 72.2315C77.7556 71.5463 78 70.7408 78 69.9167C78 69.3695 77.8922 68.8277 77.6828 68.3222C77.4734 67.8166 77.1665 67.3573 76.7796 66.9704C76.3927 66.5835 75.9334 66.2766 75.4278 66.0672C74.9223 65.8578 74.3805 65.75 73.8333 65.75ZM73.8333 72.8333C73.2565 72.8333 72.6926 72.6623 72.2129 72.3418C71.7333 72.0213 71.3594 71.5658 71.1387 71.0328C70.9179 70.4999 70.8602 69.9134 70.9727 69.3477C71.0852 68.7819 71.363 68.2622 71.7709 67.8543C72.1788 67.4464 72.6985 67.1686 73.2643 67.056C73.8301 66.9435 74.4165 67.0013 74.9495 67.222C75.4824 67.4428 75.938 67.8166 76.2585 68.2963C76.5789 68.7759 76.75 69.3398 76.75 69.9167C76.7413 70.6875 76.4313 71.4244 75.8862 71.9695C75.341 72.5146 74.6042 72.8247 73.8333 72.8333Z" fill="#666666"/>
<path d="M67.1666 74.4999H63.8333L68.8333 76.9999V75.3333H72.1666L67.1666 72.8333V74.4999Z" fill="#666666"/>
</g>
<defs>
<filter id="filter0_d" x="0" y="0" width="138" height="136.251" filterUnits="userSpaceOnUse" color-interpolation-filters="sRGB">
<feFlood flood-opacity="0" result="BackgroundImageFix"/>
<feColorMatrix in="SourceAlpha" type="matrix" values="0 0 0 0 0 0 0 0 0 0 0 0 0 0 0 0 0 0 127 0"/>
<feOffset dx="1" dy="1"/>
<feGaussianBlur stdDeviation="2"/>
<feColorMatrix type="matrix" values="0 0 0 0 0 0 0 0 0 0 0 0 0 0 0 0 0 0 0.25 0"/>
<feBlend mode="normal" in2="BackgroundImageFix" result="effect1_dropShadow"/>
<feBlend mode="normal" in="SourceGraphic" in2="effect1_dropShadow" result="shape"/>
</filter>
</defs>
</svg>
