<svg width="150" height="150" viewBox="0 0 150 150" fill="none" xmlns="http://www.w3.org/2000/svg">
<rect width="150" height="148" rx="4" fill="#507282"/>
<path d="M73.4683 21.7703L46.5184 53.4868C46.2478 53.8099 46.0747 54.2037 46.0193 54.6219C45.9639 55.0401 46.0285 55.4654 46.2056 55.8481C46.3827 56.2308 46.6649 56.5551 47.0192 56.7828C47.3734 57.0106 47.7851 57.1325 48.206 57.1342H59.5187V96.7798C59.5255 97.3665 59.7611 97.9273 60.175 98.3421C60.5889 98.757 61.1484 98.9931 61.7337 99H88.6309C89.2138 98.993 89.7704 98.7561 90.1801 98.3405C90.5898 97.9248 90.8196 97.3641 90.8196 96.7798V57.6892H101.789C102.208 57.6884 102.617 57.5688 102.971 57.3443C103.324 57.1198 103.607 56.7996 103.786 56.4208C103.966 56.0419 104.034 55.6199 103.984 55.2035C103.934 54.7872 103.767 54.3936 103.503 54.0683L76.8699 21.7967C76.6614 21.5493 76.402 21.3501 76.1095 21.2126C75.817 21.0751 75.4983 21.0026 75.1752 21.0001C74.8521 20.9976 74.5323 21.0651 74.2377 21.198C73.943 21.331 73.6806 21.5262 73.4683 21.7703Z" stroke="white" stroke-width="2" stroke-miterlimit="10"/>
<path d="M32.3281 120.625V128.359C32.3229 129.432 31.9844 130.31 31.3125 130.992C30.6458 131.674 29.7396 132.057 28.5938 132.141L28.1953 132.156C26.9505 132.156 25.9583 131.82 25.2188 131.148C24.4792 130.477 24.1042 129.552 24.0938 128.375V120.625H25.5781V128.328C25.5781 129.151 25.8047 129.792 26.2578 130.25C26.7109 130.703 27.3568 130.93 28.1953 130.93C29.0443 130.93 29.6927 130.703 30.1406 130.25C30.5938 129.797 30.8203 129.159 30.8203 128.336V120.625H32.3281ZM36.1953 127.547V132H34.6953V120.625H38.8906C40.1354 120.625 41.1094 120.943 41.8125 121.578C42.5208 122.214 42.875 123.055 42.875 124.102C42.875 125.206 42.5286 126.057 41.8359 126.656C41.1484 127.25 40.1615 127.547 38.875 127.547H36.1953ZM36.1953 126.32H38.8906C39.6927 126.32 40.3073 126.133 40.7344 125.758C41.1615 125.378 41.375 124.831 41.375 124.117C41.375 123.44 41.1615 122.898 40.7344 122.492C40.3073 122.086 39.7214 121.875 38.9766 121.859H36.1953V126.32ZM48.7578 132V120.625H51.9688C52.9583 120.625 53.8333 120.844 54.5938 121.281C55.3542 121.719 55.9401 122.341 56.3516 123.148C56.7682 123.956 56.9792 124.883 56.9844 125.93V126.656C56.9844 127.729 56.776 128.669 56.3594 129.477C55.9479 130.284 55.3568 130.904 54.5859 131.336C53.8203 131.768 52.9271 131.99 51.9062 132H48.7578ZM50.2578 121.859V130.773H51.8359C52.9922 130.773 53.8906 130.414 54.5312 129.695C55.1771 128.977 55.5 127.953 55.5 126.625V125.961C55.5 124.669 55.1953 123.667 54.5859 122.953C53.9818 122.234 53.1224 121.87 52.0078 121.859H50.2578ZM60.8672 132H59.3672V120.625H60.8672V132ZM67.7891 127.398H65.1172V132H63.6094V120.625H67.375C68.6562 120.625 69.6406 120.917 70.3281 121.5C71.0208 122.083 71.3672 122.932 71.3672 124.047C71.3672 124.755 71.1745 125.372 70.7891 125.898C70.4089 126.424 69.8776 126.818 69.1953 127.078L71.8672 131.906V132H70.2578L67.7891 127.398ZM65.1172 126.172H67.4219C68.1667 126.172 68.7578 125.979 69.1953 125.594C69.638 125.208 69.8594 124.693 69.8594 124.047C69.8594 123.344 69.6484 122.805 69.2266 122.43C68.8099 122.055 68.2057 121.865 67.4141 121.859H65.1172V126.172ZM79.9062 126.742H74.9766V130.773H80.7031V132H73.4766V120.625H80.625V121.859H74.9766V125.516H79.9062V126.742ZM90.9375 128.391C90.7969 129.594 90.3516 130.523 89.6016 131.18C88.8568 131.831 87.8646 132.156 86.625 132.156C85.2812 132.156 84.2031 131.674 83.3906 130.711C82.5833 129.747 82.1797 128.458 82.1797 126.844V125.75C82.1797 124.693 82.3672 123.763 82.7422 122.961C83.1224 122.159 83.6589 121.544 84.3516 121.117C85.0443 120.685 85.8464 120.469 86.7578 120.469C87.9661 120.469 88.9349 120.807 89.6641 121.484C90.3932 122.156 90.8177 123.089 90.9375 124.281H89.4297C89.2995 123.375 89.0156 122.719 88.5781 122.312C88.1458 121.906 87.5391 121.703 86.7578 121.703C85.7995 121.703 85.0469 122.057 84.5 122.766C83.9583 123.474 83.6875 124.482 83.6875 125.789V126.891C83.6875 128.125 83.9453 129.107 84.4609 129.836C84.9766 130.565 85.6979 130.93 86.625 130.93C87.4583 130.93 88.0964 130.742 88.5391 130.367C88.987 129.987 89.2839 129.328 89.4297 128.391H90.9375ZM100.617 121.859H96.9609V132H95.4688V121.859H91.8203V120.625H100.617V121.859ZM103.914 132H102.414V120.625H103.914V132ZM115.414 126.68C115.414 127.794 115.227 128.768 114.852 129.602C114.477 130.43 113.945 131.062 113.258 131.5C112.57 131.938 111.768 132.156 110.852 132.156C109.956 132.156 109.161 131.938 108.469 131.5C107.776 131.057 107.237 130.43 106.852 129.617C106.471 128.799 106.276 127.854 106.266 126.781V125.961C106.266 124.867 106.456 123.901 106.836 123.062C107.216 122.224 107.753 121.583 108.445 121.141C109.143 120.693 109.94 120.469 110.836 120.469C111.747 120.469 112.549 120.69 113.242 121.133C113.94 121.57 114.477 122.208 114.852 123.047C115.227 123.88 115.414 124.852 115.414 125.961V126.68ZM113.922 125.945C113.922 124.596 113.651 123.562 113.109 122.844C112.568 122.12 111.81 121.758 110.836 121.758C109.888 121.758 109.141 122.12 108.594 122.844C108.052 123.562 107.773 124.562 107.758 125.844V126.68C107.758 127.987 108.031 129.016 108.578 129.766C109.13 130.51 109.888 130.883 110.852 130.883C111.82 130.883 112.57 130.531 113.102 129.828C113.633 129.12 113.906 128.107 113.922 126.789V125.945ZM126.406 132H124.898L119.172 123.234V132H117.664V120.625H119.172L124.914 129.43V120.625H126.406V132Z" fill="white"/>
<path d="M79.375 72C79.8695 72 80.3528 71.8534 80.7639 71.5787C81.175 71.304 81.4955 70.9135 81.6847 70.4567C81.8739 69.9999 81.9234 69.4972 81.827 69.0123C81.7305 68.5273 81.4924 68.0819 81.1428 67.7322C80.7931 67.3826 80.3477 67.1445 79.8627 67.048C79.3778 66.9516 78.8751 67.0011 78.4183 67.1903C77.9615 67.3795 77.571 67.7 77.2963 68.1111C77.0216 68.5222 76.875 69.0055 76.875 69.5C76.875 70.163 77.1384 70.7989 77.6072 71.2678C78.0761 71.7366 78.712 72 79.375 72ZM66.25 80.125C64.5924 80.125 63.0027 80.7835 61.8306 81.9556C60.6585 83.1277 60 84.7174 60 86.375C60 88.0326 60.6585 89.6223 61.8306 90.7944C63.0027 91.9665 64.5924 92.625 66.25 92.625C67.9076 92.625 69.4973 91.9665 70.6694 90.7944C71.8415 89.6223 72.5 88.0326 72.5 86.375C72.5 84.7174 71.8415 83.1277 70.6694 81.9556C69.4973 80.7835 67.9076 80.125 66.25 80.125V80.125ZM66.25 90.75C65.0897 90.75 63.9769 90.2891 63.1564 89.4686C62.3359 88.6481 61.875 87.5353 61.875 86.375C61.875 85.2147 62.3359 84.1019 63.1564 83.2814C63.9769 82.4609 65.0897 82 66.25 82C67.4103 82 68.5231 82.4609 69.3436 83.2814C70.1641 84.1019 70.625 85.2147 70.625 86.375C70.625 87.5353 70.1641 88.6481 69.3436 89.4686C68.5231 90.2891 67.4103 90.75 66.25 90.75V90.75ZM73.5 78.25L76.5 75.25L77.5 76.25C78.3295 77.0965 79.3222 77.7656 80.4181 78.2168C81.5139 78.6681 82.69 78.892 83.875 78.875V76.375C83.0376 76.3799 82.2077 76.2164 81.4347 75.8943C80.6616 75.5722 79.9612 75.0981 79.375 74.5L77 72.125C76.4449 71.6431 75.7351 71.3769 75 71.375C74.6698 71.3533 74.3392 71.4099 74.0351 71.5403C73.731 71.6706 73.462 71.871 73.25 72.125L69.75 75.625C69.279 76.0866 69.0094 76.7156 69 77.375C68.9783 77.7052 69.0349 78.0358 69.1653 78.3399C69.2956 78.644 69.496 78.913 69.75 79.125L73.75 82.625V88.875H76.25V81.125L73.5 78.25ZM83.75 80.125C82.5139 80.125 81.3055 80.4916 80.2777 81.1783C79.2499 81.8651 78.4488 82.8412 77.9758 83.9832C77.5027 85.1253 77.3789 86.3819 77.6201 87.5943C77.8612 88.8067 78.4565 89.9203 79.3306 90.7944C80.2047 91.6685 81.3183 92.2638 82.5307 92.5049C83.7431 92.7461 84.9997 92.6223 86.1418 92.1492C87.2838 91.6762 88.2599 90.8751 88.9467 89.8473C89.6334 88.8195 90 87.6111 90 86.375C90 85.5542 89.8383 84.7415 89.5242 83.9832C89.2102 83.2249 88.7498 82.5359 88.1694 81.9556C87.5891 81.3752 86.9001 80.9148 86.1418 80.6008C85.3835 80.2867 84.5708 80.125 83.75 80.125V80.125ZM83.75 90.75C82.8847 90.75 82.0388 90.4934 81.3194 90.0127C80.5999 89.5319 80.0392 88.8487 79.708 88.0492C79.3769 87.2498 79.2903 86.3701 79.4591 85.5215C79.6279 84.6728 80.0446 83.8933 80.6564 83.2814C81.2683 82.6696 82.0478 82.2529 82.8965 82.0841C83.7451 81.9153 84.6248 82.0019 85.4242 82.333C86.2237 82.6642 86.9069 83.2249 87.3877 83.9444C87.8684 84.6638 88.125 85.5097 88.125 86.375C88.112 87.5313 87.6469 88.6366 86.8292 89.4542C86.0116 90.2719 84.9063 90.737 83.75 90.75V90.75Z" fill="white"/>
<path d="M73.75 93.25H68.75L76.25 97V94.5H81.25L73.75 90.75V93.25Z" fill="white"/>
</svg>
