<svg width="139" height="138" viewBox="0 0 139 138" fill="none" xmlns="http://www.w3.org/2000/svg">
<g filter="url(#filter0_d)">
<rect x="3" y="3" width="131" height="129.253" rx="4" fill="#FF6E00"/>
<path d="M67.1623 22.0128L43.626 49.7119C43.3897 49.9941 43.2385 50.338 43.1902 50.7032C43.1418 51.0684 43.1982 51.4399 43.3529 51.7741C43.5075 52.1084 43.754 52.3915 44.0634 52.5904C44.3728 52.7893 44.7324 52.8958 45.0999 52.8973H54.9796V87.5211C54.9856 88.0335 55.1913 88.5232 55.5528 88.8856C55.9143 89.2479 56.4029 89.4541 56.9141 89.4601H80.4043C80.9134 89.454 81.3995 89.247 81.7573 88.8841C82.1151 88.5211 82.3158 88.0314 82.3158 87.5211V53.382H91.8961C92.2615 53.3813 92.6192 53.2768 92.9278 53.0808C93.2364 52.8847 93.4833 52.6051 93.6399 52.2742C93.7966 51.9433 93.8565 51.5748 93.8128 51.2112C93.7691 50.8476 93.6235 50.5038 93.393 50.2197L70.1331 22.0359C69.951 21.8198 69.7245 21.6458 69.469 21.5257C69.2135 21.4056 68.9351 21.3423 68.653 21.3401C68.3708 21.338 68.0915 21.3969 67.8342 21.513C67.5769 21.6291 67.3477 21.7996 67.1623 22.0128Z" fill="#C4C4C4" stroke="white" stroke-width="2" stroke-miterlimit="10"/>
<path d="M31.2333 108.346V115.101C31.2288 116.038 30.9331 116.804 30.3464 117.4C29.7641 117.996 28.9727 118.33 27.972 118.403L27.624 118.417C26.5369 118.417 25.6704 118.123 25.0245 117.536C24.3786 116.95 24.0511 116.142 24.042 115.114V108.346H25.3383V115.073C25.3383 115.792 25.5362 116.351 25.9319 116.752C26.3277 117.147 26.8917 117.345 27.624 117.345C28.3654 117.345 28.9317 117.147 29.3229 116.752C29.7187 116.356 29.9165 115.799 29.9165 115.08V108.346H31.2333Z" fill="white"/>
<path d="M34.6107 114.391V118.28H33.3007V108.346H36.9646C38.0517 108.346 38.9023 108.623 39.5164 109.178C40.135 109.733 40.4443 110.468 40.4443 111.382C40.4443 112.346 40.1418 113.09 39.5368 113.613C38.9364 114.132 38.0745 114.391 36.951 114.391H34.6107ZM34.6107 113.32H36.9646C37.6651 113.32 38.2018 113.156 38.5748 112.829C38.9478 112.497 39.1343 112.019 39.1343 111.396C39.1343 110.804 38.9478 110.331 38.5748 109.977C38.2018 109.622 37.6901 109.438 37.0396 109.424H34.6107V113.32Z" fill="white"/>
<path d="M45.5819 118.28V108.346H48.3862C49.2504 108.346 50.0146 108.537 50.6787 108.919C51.3428 109.301 51.8545 109.845 52.2138 110.55C52.5777 111.255 52.7619 112.064 52.7665 112.979V113.613C52.7665 114.55 52.5845 115.371 52.2206 116.076C51.8613 116.781 51.345 117.323 50.6718 117.7C50.0032 118.078 49.2231 118.271 48.3316 118.28H45.5819ZM46.8919 109.424V117.209H48.2702C49.28 117.209 50.0646 116.895 50.6241 116.267C51.1881 115.64 51.4701 114.746 51.4701 113.586V113.006C51.4701 111.878 51.204 111.002 50.6718 110.379C50.1442 109.751 49.3937 109.433 48.4203 109.424H46.8919Z" fill="white"/>
<path d="M56.1575 118.28H54.8475V108.346H56.1575V118.28Z" fill="white"/>
<path d="M62.2026 114.261H59.8691V118.28H58.5523V108.346H61.841C62.9599 108.346 63.8196 108.601 64.42 109.11C65.025 109.62 65.3275 110.361 65.3275 111.334C65.3275 111.953 65.1592 112.492 64.8226 112.951C64.4905 113.411 64.0266 113.754 63.4307 113.982L65.7641 118.198V118.28H64.3586L62.2026 114.261ZM59.8691 113.19H61.8819C62.5323 113.19 63.0486 113.022 63.4307 112.685C63.8173 112.349 64.0106 111.898 64.0106 111.334C64.0106 110.72 63.8264 110.25 63.458 109.922C63.0941 109.595 62.5665 109.428 61.8751 109.424H59.8691V113.19Z" fill="white"/>
<path d="M72.7849 113.688H68.4797V117.209H73.4809V118.28H67.1697V108.346H73.4126V109.424H68.4797V112.617H72.7849V113.688Z" fill="white"/>
<path d="M82.4189 115.128C82.2961 116.179 81.9072 116.991 81.2522 117.564C80.6017 118.132 79.7352 118.417 78.6526 118.417C77.4791 118.417 76.5375 117.996 75.8279 117.154C75.1229 116.313 74.7704 115.187 74.7704 113.777V112.822C74.7704 111.898 74.9341 111.086 75.2616 110.386C75.5937 109.685 76.0622 109.149 76.6672 108.776C77.2721 108.398 77.9726 108.209 78.7686 108.209C79.8239 108.209 80.6699 108.505 81.3067 109.096C81.9435 109.683 82.3143 110.497 82.4189 111.539H81.102C80.9883 110.748 80.7404 110.174 80.3583 109.82C79.9808 109.465 79.4509 109.287 78.7686 109.287C77.9317 109.287 77.2744 109.597 76.7968 110.215C76.3237 110.834 76.0872 111.714 76.0872 112.856V113.818C76.0872 114.896 76.3124 115.753 76.7627 116.39C77.213 117.027 77.843 117.345 78.6526 117.345C79.3804 117.345 79.9376 117.182 80.3242 116.854C80.7154 116.522 80.9747 115.947 81.102 115.128H82.4189Z" fill="white"/>
<path d="M90.8725 109.424H87.6793V118.28H86.3762V109.424H83.1899V108.346H90.8725V109.424Z" fill="white"/>
<path d="M93.7517 118.28H92.4417V108.346H93.7517V118.28Z" fill="white"/>
<path d="M103.795 113.634C103.795 114.607 103.631 115.458 103.304 116.185C102.976 116.909 102.512 117.461 101.912 117.843C101.312 118.226 100.611 118.417 99.8105 118.417C99.0281 118.417 98.3345 118.226 97.7295 117.843C97.1245 117.457 96.6537 116.909 96.3172 116.199C95.9851 115.485 95.8145 114.659 95.8054 113.722V113.006C95.8054 112.051 95.9715 111.207 96.3035 110.475C96.6356 109.742 97.1041 109.183 97.709 108.796C98.3185 108.405 99.0145 108.209 99.7968 108.209C100.593 108.209 101.293 108.403 101.898 108.789C102.508 109.172 102.976 109.729 103.304 110.461C103.631 111.189 103.795 112.037 103.795 113.006V113.634ZM102.492 112.992C102.492 111.814 102.255 110.911 101.782 110.284C101.309 109.651 100.647 109.335 99.7968 109.335C98.969 109.335 98.3163 109.651 97.8387 110.284C97.3656 110.911 97.1223 111.785 97.1086 112.904V113.634C97.1086 114.775 97.3474 115.674 97.825 116.329C98.3072 116.979 98.969 117.304 99.8105 117.304C100.657 117.304 101.312 116.997 101.775 116.383C102.239 115.765 102.478 114.88 102.492 113.729V112.992Z" fill="white"/>
<path d="M113.395 118.28H112.078L107.077 110.625V118.28H105.76V108.346H107.077L112.092 116.035V108.346H113.395V118.28Z" fill="white"/>
<path d="M70.5 61.5C71.6 61.5 72.5 60.6 72.5 59.5C72.5 58.4 71.6 57.5 70.5 57.5C69.4 57.5 68.5 58.4 68.5 59.5C68.5 60.6 69.4 61.5 70.5 61.5ZM66.8 64.9L64 79H66.1L67.9 71L70 73V79H72V71.5L69.9 69.5L70.5 66.5C71.8 68 73.8 69 76 69V67C74.1 67 72.5 66 71.7 64.6L70.7 63C70.3 62.4 69.7 62 69 62C68.7 62 68.5 62.1 68.2 62.1L63 64.3V69H65V65.6L66.8 64.9Z" fill="#666666"/>
</g>
<defs>
<filter id="filter0_d" x="0" y="0" width="139" height="137.253" filterUnits="userSpaceOnUse" color-interpolation-filters="sRGB">
<feFlood flood-opacity="0" result="BackgroundImageFix"/>
<feColorMatrix in="SourceAlpha" type="matrix" values="0 0 0 0 0 0 0 0 0 0 0 0 0 0 0 0 0 0 127 0"/>
<feOffset dx="1" dy="1"/>
<feGaussianBlur stdDeviation="2"/>
<feColorMatrix type="matrix" values="0 0 0 0 0 0 0 0 0 0 0 0 0 0 0 0 0 0 0.25 0"/>
<feBlend mode="normal" in2="BackgroundImageFix" result="effect1_dropShadow"/>
<feBlend mode="normal" in="SourceGraphic" in2="effect1_dropShadow" result="shape"/>
</filter>
</defs>
</svg>
